solid FPV
facet normal 0.0 0.0 1.0
  outer loop
    vertex 54.506403376837056 5.332934929710504 0.0
    vertex 33.47904700621709 38.3701277979262 0.0
    vertex 33.47904700621709 5.353680429505154 0.0
  endloop
endfacet
facet normal 0.0 0.0 1.0
  outer loop
    vertex 33.47904700621709 38.3701277979262 0.0
    vertex 54.506403376837056 5.332934929710504 0.0
    vertex 54.506403376837056 38.3493822981316 0.0
  endloop
endfacet
facet normal -0.0 -0.0 1.0
  outer loop
    vertex 29.44390337683705 5.332934929710504 0.0
    vertex 8.416547006217083 38.3701277979262 0.0
    vertex 8.416547006217083 5.353680429505154 0.0
  endloop
endfacet
facet normal -0.0 -0.0 1.0
  outer loop
    vertex 8.416547006217083 38.3701277979262 0.0
    vertex 29.44390337683705 5.332934929710504 0.0
    vertex 29.44390337683705 38.3493822981316 0.0
  endloop
endfacet
facet normal 0.0 0.0 1.0
  outer loop
    vertex 96.99526420381092 8.41246074689046 2.3125
    vertex 96.62026420381092 16.46000783268905 2.3125
    vertex 96.62026420381092 8.41246074689046 2.3125
  endloop
endfacet
facet normal 0.0 0.0 1.0
  outer loop
    vertex 96.62026420381092 16.46000783268905 2.3125
    vertex 96.99526420381092 8.41246074689046 2.3125
    vertex 96.8116196434282 16.46000783268905 2.3125
  endloop
endfacet
facet normal 0.0 0.0 1.0
  outer loop
    vertex 96.8116196434282 16.46000783268905 2.3125
    vertex 96.99526420381092 8.41246074689046 2.3125
    vertex 96.8116196434282 16.71000783268905 2.3125
  endloop
endfacet
facet normal 0.0 0.0 1.0
  outer loop
    vertex 96.8116196434282 16.71000783268905 2.3125
    vertex 96.62026420381092 30.974960746890467 2.3125
    vertex 96.62026420381092 16.71000783268905 2.3125
  endloop
endfacet
facet normal 0.0 0.0 1.0
  outer loop
    vertex 96.62026420381092 30.974960746890467 2.3125
    vertex 96.8116196434282 16.71000783268905 2.3125
    vertex 96.99526420381092 30.974960746890467 2.3125
  endloop
endfacet
facet normal 0.0 0.0 1.0
  outer loop
    vertex 96.99526420381092 30.974960746890467 2.3125
    vertex 96.8116196434282 16.71000783268905 2.3125
    vertex 96.99526420381092 8.41246074689046 2.3125
  endloop
endfacet
facet normal 0.0 -1.0 0.0
  outer loop
    vertex 87.55776420381092 8.41246074689046 2.5
    vertex 83.80776420381092 8.41246074689046 2.3125
    vertex 87.55776420381092 8.41246074689046 2.3125
  endloop
endfacet
facet normal 0.0 -1.0 0.0
  outer loop
    vertex 83.80776420381092 8.41246074689046 2.3125
    vertex 87.55776420381092 8.41246074689046 2.5
    vertex 83.80776420381092 8.41246074689046 2.5
  endloop
endfacet
facet normal 0.0 -1.0 0.0
  outer loop
    vertex 83.80776420381092 8.41246074689046 2.5
    vertex 87.55776420381092 8.41246074689046 2.5
    vertex 85.49526420381092 8.41246074689046 2.5
  endloop
endfacet
facet normal 0.2786935930266346 0.9603800712248797 0.0
  outer loop
    vertex 83.80776420381092 36.683966041280335 2.5
    vertex 87.55776420381092 35.595750026430146 2.3125
    vertex 83.80776420381092 36.683966041280335 2.3125
  endloop
endfacet
facet normal 0.2786935930266346 0.9603800712248797 0.0
  outer loop
    vertex 87.55776420381092 35.595750026430146 2.3125
    vertex 83.80776420381092 36.683966041280335 2.5
    vertex 87.55776420381092 35.595750026430146 2.5
  endloop
endfacet
facet normal 0.2786935930266346 0.9603800712248797 0.0
  outer loop
    vertex 87.55776420381092 35.595750026430146 2.5
    vertex 83.80776420381092 36.683966041280335 2.5
    vertex 85.49526420381092 36.19426883459775 2.5
  endloop
endfacet
facet normal 0.0 0.0 1.0
  outer loop
    vertex 89.18276420381092 8.41246074689046 2.5
    vertex 87.55776420381092 15.11781092406852 2.5
    vertex 87.55776420381092 8.41246074689046 2.5
  endloop
endfacet
facet normal 0.0 0.0 1.0
  outer loop
    vertex 87.55776420381092 15.11781092406852 2.5
    vertex 89.18276420381092 8.41246074689046 2.5
    vertex 89.18276420381092 15.117810924068523 2.5
  endloop
endfacet
facet normal 0.0 -1.0 0.0
  outer loop
    vertex 89.18276420381092 8.41246074689046 2.5
    vertex 87.55776420381092 8.41246074689046 2.3125
    vertex 89.18276420381092 8.41246074689046 2.3125
  endloop
endfacet
facet normal 0.0 -1.0 0.0
  outer loop
    vertex 87.55776420381092 8.41246074689046 2.3125
    vertex 89.18276420381092 8.41246074689046 2.5
    vertex 87.55776420381092 8.41246074689046 2.5
  endloop
endfacet
facet normal 0.0 0.0 1.0
  outer loop
    vertex 89.18276420381092 15.117810924068523 2.5
    vertex 87.55776420381092 16.71000783268905 2.5
    vertex 87.55776420381092 15.11781092406852 2.5
  endloop
endfacet
facet normal 0.0 0.0 1.0
  outer loop
    vertex 87.55776420381092 16.71000783268905 2.5
    vertex 89.18276420381092 15.117810924068523 2.5
    vertex 89.18276420381092 16.71000783268905 2.5
  endloop
endfacet
facet normal 0.0 0.0 1.0
  outer loop
    vertex 89.18276420381092 16.71000783268905 2.5
    vertex 87.55776420381092 35.595750026430146 2.5
    vertex 87.55776420381092 16.71000783268905 2.5
  endloop
endfacet
facet normal 0.0 0.0 1.0
  outer loop
    vertex 87.55776420381092 35.595750026430146 2.5
    vertex 89.18276420381092 16.71000783268905 2.5
    vertex 89.18276420381092 35.00751100875859 2.5
  endloop
endfacet
facet normal 0.3403781328997985 0.9402886400694455 0.0
  outer loop
    vertex 87.55776420381092 35.595750026430146 2.5
    vertex 89.18276420381092 35.00751100875859 2.3125
    vertex 87.55776420381092 35.595750026430146 2.3125
  endloop
endfacet
facet normal 0.3403781328997985 0.9402886400694455 0.0
  outer loop
    vertex 89.18276420381092 35.00751100875859 2.3125
    vertex 87.55776420381092 35.595750026430146 2.5
    vertex 89.18276420381092 35.00751100875859 2.5
  endloop
endfacet
facet normal 0.0 0.0 1.0
  outer loop
    vertex 91.30776420381092 8.41246074689046 2.5
    vertex 89.18276420381092 15.117810924068523 2.5
    vertex 89.18276420381092 8.41246074689046 2.5
  endloop
endfacet
facet normal 0.0 0.0 1.0
  outer loop
    vertex 89.18276420381092 15.117810924068523 2.5
    vertex 91.30776420381092 8.41246074689046 2.5
    vertex 89.18276420381092 16.71000783268905 2.5
  endloop
endfacet
facet normal 0.0 0.0 1.0
  outer loop
    vertex 89.18276420381092 16.71000783268905 2.5
    vertex 91.30776420381092 8.41246074689046 2.5
    vertex 89.18276420381092 35.00751100875859 2.5
  endloop
endfacet
facet normal 0.0 0.0 1.0
  outer loop
    vertex 89.18276420381092 35.00751100875859 2.5
    vertex 91.30776420381092 8.41246074689046 2.5
    vertex 91.30776420381092 30.974960746890467 2.5
  endloop
endfacet
facet normal 0.0 -1.0 0.0
  outer loop
    vertex 91.30776420381092 8.41246074689046 2.5
    vertex 89.18276420381092 8.41246074689046 2.3125
    vertex 91.30776420381092 8.41246074689046 2.3125
  endloop
endfacet
facet normal 0.0 -1.0 0.0
  outer loop
    vertex 89.18276420381092 8.41246074689046 2.3125
    vertex 91.30776420381092 8.41246074689046 2.5
    vertex 89.18276420381092 8.41246074689046 2.5
  endloop
endfacet
facet normal 0.8846825560261297 0.46619392430948087 0.0
  outer loop
    vertex 89.18276420381092 35.00751100875859 2.3125
    vertex 91.30776420381092 30.974960746890467 2.5
    vertex 91.30776420381092 30.974960746890467 2.3125
  endloop
endfacet
facet normal 0.8846825560261297 0.46619392430948087 0.0
  outer loop
    vertex 91.30776420381092 30.974960746890467 2.5
    vertex 89.18276420381092 35.00751100875859 2.3125
    vertex 89.18276420381092 35.00751100875859 2.5
  endloop
endfacet
facet normal 0.0 0.0 1.0
  outer loop
    vertex 96.62026420381092 8.41246074689046 2.5
    vertex 93.05776420381092 9.037460746890462 2.5
    vertex 93.05776420381092 8.41246074689046 2.5
  endloop
endfacet
facet normal 0.0 0.0 1.0
  outer loop
    vertex 93.05776420381092 9.037460746890462 2.5
    vertex 96.62026420381092 8.41246074689046 2.5
    vertex 93.47122957358138 15.86452125927264 2.5
  endloop
endfacet
facet normal 0.0 0.0 1.0
  outer loop
    vertex 93.47122957358138 15.86452125927264 2.5
    vertex 96.62026420381092 8.41246074689046 2.5
    vertex 94.22122957358138 15.86452125927264 2.5
  endloop
endfacet
facet normal 0.0 0.0 1.0
  outer loop
    vertex 94.22122957358138 15.86452125927264 2.5
    vertex 96.62026420381092 8.41246074689046 2.5
    vertex 94.22122957358138 16.302021259272642 2.5
  endloop
endfacet
facet normal 0.0 0.0 1.0
  outer loop
    vertex 94.22122957358138 16.302021259272642 2.5
    vertex 96.62026420381092 8.41246074689046 2.5
    vertex 96.2491196434282 16.46000783268905 2.5
  endloop
endfacet
facet normal 0.0 0.0 1.0
  outer loop
    vertex 96.2491196434282 16.46000783268905 2.5
    vertex 96.62026420381092 8.41246074689046 2.5
    vertex 96.62026420381092 16.46000783268905 2.5
  endloop
endfacet
facet normal 0.0 0.0 1.0
  outer loop
    vertex 91.93276420381092 8.41246074689046 2.5
    vertex 91.30776420381092 30.974960746890467 2.5
    vertex 91.30776420381092 8.41246074689046 2.5
  endloop
endfacet
facet normal 0.0 0.0 1.0
  outer loop
    vertex 91.30776420381092 30.974960746890467 2.5
    vertex 91.93276420381092 8.41246074689046 2.5
    vertex 91.93276420381092 9.037460746890462 2.5
  endloop
endfacet
facet normal 0.0 0.0 1.0
  outer loop
    vertex 91.30776420381092 30.974960746890467 2.5
    vertex 91.93276420381092 9.037460746890462 2.5
    vertex 93.47122957358138 16.302021259272642 2.5
  endloop
endfacet
facet normal 0.0 0.0 1.0
  outer loop
    vertex 91.30776420381092 30.974960746890467 2.5
    vertex 93.47122957358138 16.302021259272642 2.5
    vertex 96.62026420381092 30.974960746890467 2.5
  endloop
endfacet
facet normal 0.0 0.0 1.0
  outer loop
    vertex 93.47122957358138 16.302021259272642 2.5
    vertex 91.93276420381092 9.037460746890462 2.5
    vertex 93.05776420381092 9.037460746890462 2.5
  endloop
endfacet
facet normal 0.0 0.0 1.0
  outer loop
    vertex 93.47122957358138 16.302021259272642 2.5
    vertex 93.05776420381092 9.037460746890462 2.5
    vertex 93.47122957358138 15.86452125927264 2.5
  endloop
endfacet
facet normal 0.0 0.0 1.0
  outer loop
    vertex 96.62026420381092 30.974960746890467 2.5
    vertex 93.47122957358138 16.302021259272642 2.5
    vertex 94.22122957358138 16.302021259272642 2.5
  endloop
endfacet
facet normal 0.0 0.0 1.0
  outer loop
    vertex 96.62026420381092 30.974960746890467 2.5
    vertex 94.22122957358138 16.302021259272642 2.5
    vertex 96.2491196434282 16.71000783268905 2.5
  endloop
endfacet
facet normal 0.0 0.0 1.0
  outer loop
    vertex 96.2491196434282 16.71000783268905 2.5
    vertex 94.22122957358138 16.302021259272642 2.5
    vertex 96.2491196434282 16.46000783268905 2.5
  endloop
endfacet
facet normal 0.0 0.0 1.0
  outer loop
    vertex 96.62026420381092 30.974960746890467 2.5
    vertex 96.2491196434282 16.71000783268905 2.5
    vertex 96.62026420381092 16.71000783268905 2.5
  endloop
endfacet
facet normal 1.0 0.0 0.0
  outer loop
    vertex 96.62026420381092 16.46000783268905 2.3125
    vertex 96.62026420381092 8.41246074689046 2.5
    vertex 96.62026420381092 8.41246074689046 2.3125
  endloop
endfacet
facet normal 1.0 0.0 0.0
  outer loop
    vertex 96.62026420381092 8.41246074689046 2.5
    vertex 96.62026420381092 16.46000783268905 2.3125
    vertex 96.62026420381092 16.46000783268905 2.5
  endloop
endfacet
facet normal 0.0 1.0 0.0
  outer loop
    vertex 96.2491196434282 16.46000783268905 2.5
    vertex 96.62026420381092 16.46000783268905 2.3125
    vertex 96.2491196434282 16.46000783268905 2.3125
  endloop
endfacet
facet normal 0.0 1.0 0.0
  outer loop
    vertex 96.62026420381092 16.46000783268905 2.3125
    vertex 96.2491196434282 16.46000783268905 2.5
    vertex 96.62026420381092 16.46000783268905 2.5
  endloop
endfacet
facet normal 1.0 0.0 0.0
  outer loop
    vertex 96.2491196434282 16.71000783268905 2.3125
    vertex 96.2491196434282 16.46000783268905 2.5
    vertex 96.2491196434282 16.46000783268905 2.3125
  endloop
endfacet
facet normal 1.0 0.0 0.0
  outer loop
    vertex 96.2491196434282 16.46000783268905 2.5
    vertex 96.2491196434282 16.71000783268905 2.3125
    vertex 96.2491196434282 16.71000783268905 2.5
  endloop
endfacet
facet normal 0.0 -1.0 0.0
  outer loop
    vertex 96.62026420381092 16.71000783268905 2.5
    vertex 96.2491196434282 16.71000783268905 2.3125
    vertex 96.62026420381092 16.71000783268905 2.3125
  endloop
endfacet
facet normal 0.0 -1.0 0.0
  outer loop
    vertex 96.2491196434282 16.71000783268905 2.3125
    vertex 96.62026420381092 16.71000783268905 2.5
    vertex 96.2491196434282 16.71000783268905 2.5
  endloop
endfacet
facet normal 1.0 0.0 0.0
  outer loop
    vertex 96.62026420381092 30.974960746890467 2.3125
    vertex 96.62026420381092 16.71000783268905 2.5
    vertex 96.62026420381092 16.71000783268905 2.3125
  endloop
endfacet
facet normal 1.0 0.0 0.0
  outer loop
    vertex 96.62026420381092 16.71000783268905 2.5
    vertex 96.62026420381092 30.974960746890467 2.3125
    vertex 96.62026420381092 30.974960746890467 2.5
  endloop
endfacet
facet normal 0.0 1.0 0.0
  outer loop
    vertex 91.30776420381092 30.974960746890467 2.5
    vertex 96.62026420381092 30.974960746890467 2.3125
    vertex 91.30776420381092 30.974960746890467 2.3125
  endloop
endfacet
facet normal 0.0 1.0 0.0
  outer loop
    vertex 96.62026420381092 30.974960746890467 2.3125
    vertex 91.30776420381092 30.974960746890467 2.5
    vertex 96.62026420381092 30.974960746890467 2.5
  endloop
endfacet
facet normal 0.0 -1.0 0.0
  outer loop
    vertex 91.93276420381092 8.41246074689046 2.5
    vertex 91.30776420381092 8.41246074689046 2.3125
    vertex 91.93276420381092 8.41246074689046 2.3125
  endloop
endfacet
facet normal 0.0 -1.0 0.0
  outer loop
    vertex 91.30776420381092 8.41246074689046 2.3125
    vertex 91.93276420381092 8.41246074689046 2.5
    vertex 91.30776420381092 8.41246074689046 2.5
  endloop
endfacet
facet normal 1.0 0.0 0.0
  outer loop
    vertex 91.93276420381092 9.037460746890462 2.3125
    vertex 91.93276420381092 8.41246074689046 2.5
    vertex 91.93276420381092 8.41246074689046 2.3125
  endloop
endfacet
facet normal 1.0 0.0 0.0
  outer loop
    vertex 91.93276420381092 8.41246074689046 2.5
    vertex 91.93276420381092 9.037460746890462 2.3125
    vertex 91.93276420381092 9.037460746890462 2.5
  endloop
endfacet
facet normal 0.0 -1.0 0.0
  outer loop
    vertex 93.05776420381092 9.037460746890462 2.5
    vertex 91.93276420381092 9.037460746890462 2.3125
    vertex 93.05776420381092 9.037460746890462 2.3125
  endloop
endfacet
facet normal 0.0 -1.0 0.0
  outer loop
    vertex 91.93276420381092 9.037460746890462 2.3125
    vertex 93.05776420381092 9.037460746890462 2.5
    vertex 91.93276420381092 9.037460746890462 2.5
  endloop
endfacet
facet normal -1.0 0.0 0.0
  outer loop
    vertex 93.05776420381092 9.037460746890462 2.5
    vertex 93.05776420381092 8.41246074689046 2.3125
    vertex 93.05776420381092 8.41246074689046 2.5
  endloop
endfacet
facet normal -1.0 0.0 0.0
  outer loop
    vertex 93.05776420381092 8.41246074689046 2.3125
    vertex 93.05776420381092 9.037460746890462 2.5
    vertex 93.05776420381092 9.037460746890462 2.3125
  endloop
endfacet
facet normal 0.0 -1.0 0.0
  outer loop
    vertex 96.62026420381092 8.41246074689046 2.5
    vertex 93.05776420381092 8.41246074689046 2.3125
    vertex 96.62026420381092 8.41246074689046 2.3125
  endloop
endfacet
facet normal 0.0 -1.0 0.0
  outer loop
    vertex 93.05776420381092 8.41246074689046 2.3125
    vertex 96.62026420381092 8.41246074689046 2.5
    vertex 93.05776420381092 8.41246074689046 2.5
  endloop
endfacet
facet normal 0.0 -1.0 0.0
  outer loop
    vertex 94.22122957358138 16.302021259272642 2.5
    vertex 93.47122957358138 16.302021259272642 2.3125
    vertex 94.22122957358138 16.302021259272642 2.3125
  endloop
endfacet
facet normal 0.0 -1.0 0.0
  outer loop
    vertex 93.47122957358138 16.302021259272642 2.3125
    vertex 94.22122957358138 16.302021259272642 2.5
    vertex 93.47122957358138 16.302021259272642 2.5
  endloop
endfacet
facet normal -1.0 0.0 0.0
  outer loop
    vertex 94.22122957358138 16.302021259272642 2.5
    vertex 94.22122957358138 15.86452125927264 2.3125
    vertex 94.22122957358138 15.86452125927264 2.5
  endloop
endfacet
facet normal -1.0 0.0 0.0
  outer loop
    vertex 94.22122957358138 15.86452125927264 2.3125
    vertex 94.22122957358138 16.302021259272642 2.5
    vertex 94.22122957358138 16.302021259272642 2.3125
  endloop
endfacet
facet normal 0.0 1.0 0.0
  outer loop
    vertex 93.47122957358138 15.86452125927264 2.5
    vertex 94.22122957358138 15.86452125927264 2.3125
    vertex 93.47122957358138 15.86452125927264 2.3125
  endloop
endfacet
facet normal 0.0 1.0 0.0
  outer loop
    vertex 94.22122957358138 15.86452125927264 2.3125
    vertex 93.47122957358138 15.86452125927264 2.5
    vertex 94.22122957358138 15.86452125927264 2.5
  endloop
endfacet
facet normal 1.0 0.0 0.0
  outer loop
    vertex 93.47122957358138 16.302021259272642 2.3125
    vertex 93.47122957358138 15.86452125927264 2.5
    vertex 93.47122957358138 15.86452125927264 2.3125
  endloop
endfacet
facet normal 1.0 0.0 0.0
  outer loop
    vertex 93.47122957358138 15.86452125927264 2.5
    vertex 93.47122957358138 16.302021259272642 2.3125
    vertex 93.47122957358138 16.302021259272642 2.5
  endloop
endfacet
facet normal 0.0 0.0 1.0
  outer loop
    vertex 97.99526420381092 8.41246074689046 2.5
    vertex 96.99526420381092 30.974960746890467 2.5
    vertex 96.99526420381092 8.41246074689046 2.5
  endloop
endfacet
facet normal 0.0 0.0 1.0
  outer loop
    vertex 96.99526420381092 30.974960746890467 2.5
    vertex 97.99526420381092 8.41246074689046 2.5
    vertex 97.99526420381092 30.974960746890467 2.5
  endloop
endfacet
facet normal 0.0 1.0 0.0
  outer loop
    vertex 96.99526420381092 30.974960746890467 2.5
    vertex 97.99526420381092 30.974960746890467 2.3125
    vertex 96.99526420381092 30.974960746890467 2.3125
  endloop
endfacet
facet normal 0.0 1.0 0.0
  outer loop
    vertex 97.99526420381092 30.974960746890467 2.3125
    vertex 96.99526420381092 30.974960746890467 2.5
    vertex 97.99526420381092 30.974960746890467 2.5
  endloop
endfacet
facet normal -1.0 0.0 0.0
  outer loop
    vertex 96.99526420381092 30.974960746890467 2.5
    vertex 96.99526420381092 8.41246074689046 2.3125
    vertex 96.99526420381092 8.41246074689046 2.5
  endloop
endfacet
facet normal -1.0 0.0 0.0
  outer loop
    vertex 96.99526420381092 8.41246074689046 2.3125
    vertex 96.99526420381092 30.974960746890467 2.5
    vertex 96.99526420381092 30.974960746890467 2.3125
  endloop
endfacet
facet normal 0.0 -1.0 0.0
  outer loop
    vertex 97.99526420381092 8.41246074689046 2.5
    vertex 96.99526420381092 8.41246074689046 2.3125
    vertex 97.99526420381092 8.41246074689046 2.3125
  endloop
endfacet
facet normal 0.0 -1.0 0.0
  outer loop
    vertex 96.99526420381092 8.41246074689046 2.3125
    vertex 97.99526420381092 8.41246074689046 2.5
    vertex 96.99526420381092 8.41246074689046 2.5
  endloop
endfacet
facet normal 1.0 0.0 0.0
  outer loop
    vertex 97.99526420381092 30.974960746890467 2.3125
    vertex 97.99526420381092 8.41246074689046 2.5
    vertex 97.99526420381092 8.41246074689046 2.3125
  endloop
endfacet
facet normal 1.0 0.0 0.0
  outer loop
    vertex 97.99526420381092 8.41246074689046 2.5
    vertex 97.99526420381092 30.974960746890467 2.3125
    vertex 97.99526420381092 30.974960746890467 2.5
  endloop
endfacet
facet normal 0.0 1.0 0.0
  outer loop
    vertex 84.2019833020882 16.58643113373008 2.5
    vertex 85.2019833020882 16.58643113373008 2.3125
    vertex 84.2019833020882 16.58643113373008 2.3125
  endloop
endfacet
facet normal 0.0 1.0 0.0
  outer loop
    vertex 85.2019833020882 16.58643113373008 2.3125
    vertex 84.2019833020882 16.58643113373008 2.5
    vertex 85.2019833020882 16.58643113373008 2.5
  endloop
endfacet
facet normal 0.0 1.0 0.0
  outer loop
    vertex 83.80776420381092 10.037460746890462 2.5
    vertex 85.49526420381092 10.037460746890462 2.3125
    vertex 83.80776420381092 10.037460746890462 2.3125
  endloop
endfacet
facet normal 0.0 1.0 0.0
  outer loop
    vertex 85.49526420381092 10.037460746890462 2.3125
    vertex 83.80776420381092 10.037460746890462 2.5
    vertex 85.30776420381092 10.037460746890462 2.5
  endloop
endfacet
facet normal 0.0 0.0 1.0
  outer loop
    vertex 87.55776420381092 8.41246074689046 2.5
    vertex 85.49526420381092 10.037460746890462 2.5
    vertex 85.49526420381092 8.41246074689046 2.5
  endloop
endfacet
facet normal 0.0 0.0 1.0
  outer loop
    vertex 85.49526420381092 10.037460746890462 2.5
    vertex 87.55776420381092 8.41246074689046 2.5
    vertex 85.49526420381092 30.974960746890467 2.5
  endloop
endfacet
facet normal 0.0 0.0 1.0
  outer loop
    vertex 85.49526420381092 30.974960746890467 2.5
    vertex 87.55776420381092 8.41246074689046 2.5
    vertex 85.49526420381092 36.19426883459775 2.5
  endloop
endfacet
facet normal 0.0 0.0 1.0
  outer loop
    vertex 85.49526420381092 36.19426883459775 2.5
    vertex 87.55776420381092 8.41246074689046 2.5
    vertex 87.55776420381092 35.595750026430146 2.5
  endloop
endfacet
facet normal 0.0 0.0 1.0
  outer loop
    vertex 87.55776420381092 35.595750026430146 2.5
    vertex 87.55776420381092 8.41246074689046 2.5
    vertex 87.55776420381092 15.11781092406852 2.5
  endloop
endfacet
facet normal 0.0 0.0 1.0
  outer loop
    vertex 87.55776420381092 35.595750026430146 2.5
    vertex 87.55776420381092 15.11781092406852 2.5
    vertex 87.55776420381092 16.71000783268905 2.5
  endloop
endfacet
facet normal 0.0 0.0 1.0
  outer loop
    vertex 85.30776420381092 30.974960746890467 2.5
    vertex 83.80776420381092 36.683966041280335 2.5
    vertex 83.80776420381092 30.974960746890467 2.5
  endloop
endfacet
facet normal 0.0 0.0 1.0
  outer loop
    vertex 83.80776420381092 36.683966041280335 2.5
    vertex 85.30776420381092 30.974960746890467 2.5
    vertex 85.49526420381092 36.19426883459775 2.5
  endloop
endfacet
facet normal 0.0 0.0 1.0
  outer loop
    vertex 85.49526420381092 36.19426883459775 2.5
    vertex 85.30776420381092 30.974960746890467 2.5
    vertex 85.49526420381092 30.974960746890467 2.5
  endloop
endfacet
facet normal 0.0 -1.0 0.0
  outer loop
    vertex 85.30776420381092 30.974960746890467 2.5
    vertex 85.49526420381092 30.974960746890467 2.3125
    vertex 85.49526420381092 30.974960746890467 2.5
  endloop
endfacet
facet normal 0.0 1.0 0.0
  outer loop
    vertex 85.49526420381092 10.037460746890462 2.5
    vertex 85.49526420381092 10.037460746890462 2.3125
    vertex 85.30776420381092 10.037460746890462 2.5
  endloop
endfacet
facet normal 0.0 -1.0 0.0
  outer loop
    vertex 85.30776420381092 30.974960746890467 2.5
    vertex 83.80776420381092 30.974960746890467 2.3125
    vertex 85.49526420381092 30.974960746890467 2.3125
  endloop
endfacet
facet normal 0.0 -1.0 0.0
  outer loop
    vertex 83.80776420381092 30.974960746890467 2.3125
    vertex 85.30776420381092 30.974960746890467 2.5
    vertex 83.80776420381092 30.974960746890467 2.5
  endloop
endfacet
facet normal -0.7071067811865476 0.0 -0.7071067811865476
  outer loop
    vertex 85.30776420381092 30.974960746890467 2.5
    vertex 85.49526420381092 10.037460746890462 2.3125
    vertex 85.30776420381092 10.037460746890462 2.5
  endloop
endfacet
facet normal -0.7071067811865476 0.0 -0.7071067811865476
  outer loop
    vertex 85.49526420381092 10.037460746890462 2.3125
    vertex 85.30776420381092 30.974960746890467 2.5
    vertex 85.49526420381092 30.974960746890467 2.3125
  endloop
endfacet
facet normal 0.0 0.0 1.0
  outer loop
    vertex 85.30776420381092 10.037460746890462 2.5
    vertex 83.80776420381092 30.974960746890467 2.5
    vertex 83.80776420381092 10.037460746890462 2.5
  endloop
endfacet
facet normal 0.0 0.0 1.0
  outer loop
    vertex 83.80776420381092 30.974960746890467 2.5
    vertex 85.30776420381092 10.037460746890462 2.5
    vertex 85.30776420381092 30.974960746890467 2.5
  endloop
endfacet
facet normal -1.0 0.0 0.0
  outer loop
    vertex 83.80776420381092 30.974960746890467 2.5
    vertex 83.80776420381092 10.037460746890462 2.3125
    vertex 83.80776420381092 10.037460746890462 2.5
  endloop
endfacet
facet normal -1.0 0.0 0.0
  outer loop
    vertex 83.80776420381092 10.037460746890462 2.3125
    vertex 83.80776420381092 30.974960746890467 2.5
    vertex 83.80776420381092 30.974960746890467 2.3125
  endloop
endfacet
facet normal 0.0 0.0 1.0
  outer loop
    vertex 85.49526420381092 8.41246074689046 2.5
    vertex 83.80776420381092 10.037460746890462 2.5
    vertex 83.80776420381092 8.41246074689046 2.5
  endloop
endfacet
facet normal 0.0 0.0 1.0
  outer loop
    vertex 83.80776420381092 10.037460746890462 2.5
    vertex 85.49526420381092 8.41246074689046 2.5
    vertex 85.30776420381092 10.037460746890462 2.5
  endloop
endfacet
facet normal 0.0 0.0 1.0
  outer loop
    vertex 85.30776420381092 10.037460746890462 2.5
    vertex 85.49526420381092 8.41246074689046 2.5
    vertex 85.49526420381092 10.037460746890462 2.5
  endloop
endfacet
facet normal 0.0 0.0 1.0
  outer loop
    vertex 87.55776420381092 8.41246074689046 2.3125
    vertex 83.80776420381092 10.037460746890462 2.3125
    vertex 83.80776420381092 8.41246074689046 2.3125
  endloop
endfacet
facet normal 0.0 0.0 1.0
  outer loop
    vertex 83.80776420381092 10.037460746890462 2.3125
    vertex 87.55776420381092 8.41246074689046 2.3125
    vertex 85.49526420381092 10.037460746890462 2.3125
  endloop
endfacet
facet normal 0.0 0.0 1.0
  outer loop
    vertex 85.49526420381092 10.037460746890462 2.3125
    vertex 87.55776420381092 8.41246074689046 2.3125
    vertex 85.49526420381092 30.974960746890467 2.3125
  endloop
endfacet
facet normal 0.0 0.0 1.0
  outer loop
    vertex 96.62026420381092 8.41246074689046 2.3125
    vertex 93.05776420381092 9.037460746890462 2.3125
    vertex 93.05776420381092 8.41246074689046 2.3125
  endloop
endfacet
facet normal 0.0 0.0 1.0
  outer loop
    vertex 93.05776420381092 9.037460746890462 2.3125
    vertex 96.62026420381092 8.41246074689046 2.3125
    vertex 96.2491196434282 16.46000783268905 2.3125
  endloop
endfacet
facet normal 0.0 0.0 1.0
  outer loop
    vertex 96.2491196434282 16.46000783268905 2.3125
    vertex 96.62026420381092 8.41246074689046 2.3125
    vertex 96.62026420381092 16.46000783268905 2.3125
  endloop
endfacet
facet normal 0.0 0.0 1.0
  outer loop
    vertex 85.49526420381092 30.974960746890467 2.3125
    vertex 83.80776420381092 36.683966041280335 2.3125
    vertex 83.80776420381092 30.974960746890467 2.3125
  endloop
endfacet
facet normal 0.0 0.0 1.0
  outer loop
    vertex 83.80776420381092 36.683966041280335 2.3125
    vertex 85.49526420381092 30.974960746890467 2.3125
    vertex 87.55776420381092 35.595750026430146 2.3125
  endloop
endfacet
facet normal 0.0 0.0 1.0
  outer loop
    vertex 87.55776420381092 35.595750026430146 2.3125
    vertex 85.49526420381092 30.974960746890467 2.3125
    vertex 87.55776420381092 8.41246074689046 2.3125
  endloop
endfacet
facet normal 0.0 0.0 1.0
  outer loop
    vertex 87.55776420381092 35.595750026430146 2.3125
    vertex 87.55776420381092 8.41246074689046 2.3125
    vertex 89.18276420381092 8.41246074689046 2.3125
  endloop
endfacet
facet normal 0.0 0.0 1.0
  outer loop
    vertex 87.55776420381092 35.595750026430146 2.3125
    vertex 89.18276420381092 8.41246074689046 2.3125
    vertex 89.18276420381092 35.00751100875859 2.3125
  endloop
endfacet
facet normal 0.0 0.0 1.0
  outer loop
    vertex 89.18276420381092 35.00751100875859 2.3125
    vertex 89.18276420381092 8.41246074689046 2.3125
    vertex 91.30776420381092 8.41246074689046 2.3125
  endloop
endfacet
facet normal 0.0 0.0 1.0
  outer loop
    vertex 89.18276420381092 35.00751100875859 2.3125
    vertex 91.30776420381092 8.41246074689046 2.3125
    vertex 91.30776420381092 30.974960746890467 2.3125
  endloop
endfacet
facet normal 0.0 0.0 1.0
  outer loop
    vertex 91.30776420381092 30.974960746890467 2.3125
    vertex 91.30776420381092 8.41246074689046 2.3125
    vertex 91.93276420381092 8.41246074689046 2.3125
  endloop
endfacet
facet normal 0.0 0.0 1.0
  outer loop
    vertex 91.30776420381092 30.974960746890467 2.3125
    vertex 91.93276420381092 8.41246074689046 2.3125
    vertex 91.93276420381092 9.037460746890462 2.3125
  endloop
endfacet
facet normal 0.0 0.0 1.0
  outer loop
    vertex 91.30776420381092 30.974960746890467 2.3125
    vertex 91.93276420381092 9.037460746890462 2.3125
    vertex 96.62026420381092 30.974960746890467 2.3125
  endloop
endfacet
facet normal 0.0 0.0 1.0
  outer loop
    vertex 96.62026420381092 30.974960746890467 2.3125
    vertex 91.93276420381092 9.037460746890462 2.3125
    vertex 93.05776420381092 9.037460746890462 2.3125
  endloop
endfacet
facet normal 0.0 0.0 1.0
  outer loop
    vertex 96.62026420381092 30.974960746890467 2.3125
    vertex 93.05776420381092 9.037460746890462 2.3125
    vertex 96.2491196434282 16.71000783268905 2.3125
  endloop
endfacet
facet normal 0.0 0.0 1.0
  outer loop
    vertex 96.2491196434282 16.71000783268905 2.3125
    vertex 93.05776420381092 9.037460746890462 2.3125
    vertex 96.2491196434282 16.46000783268905 2.3125
  endloop
endfacet
facet normal 0.0 0.0 1.0
  outer loop
    vertex 96.62026420381092 30.974960746890467 2.3125
    vertex 96.2491196434282 16.71000783268905 2.3125
    vertex 96.62026420381092 16.71000783268905 2.3125
  endloop
endfacet
facet normal 0.0 0.0 1.0
  outer loop
    vertex 85.49526420381092 10.037460746890462 2.3125
    vertex 83.80776420381092 30.974960746890467 2.3125
    vertex 83.80776420381092 10.037460746890462 2.3125
  endloop
endfacet
facet normal 0.0 0.0 1.0
  outer loop
    vertex 83.80776420381092 30.974960746890467 2.3125
    vertex 85.49526420381092 10.037460746890462 2.3125
    vertex 85.49526420381092 30.974960746890467 2.3125
  endloop
endfacet
facet normal -1.0 0.0 0.0
  outer loop
    vertex 85.49526420381092 30.974960746890467 2.5
    vertex 85.49526420381092 10.037460746890462 2.3125
    vertex 85.49526420381092 10.037460746890462 2.5
  endloop
endfacet
facet normal -1.0 0.0 0.0
  outer loop
    vertex 85.49526420381092 10.037460746890462 2.3125
    vertex 85.49526420381092 30.974960746890467 2.5
    vertex 85.49526420381092 30.974960746890467 2.3125
  endloop
endfacet
facet normal -1.0 0.0 0.0
  outer loop
    vertex 83.80776420381092 10.037460746890462 2.5
    vertex 83.80776420381092 8.41246074689046 2.3125
    vertex 83.80776420381092 8.41246074689046 2.5
  endloop
endfacet
facet normal -1.0 0.0 0.0
  outer loop
    vertex 83.80776420381092 8.41246074689046 2.3125
    vertex 83.80776420381092 10.037460746890462 2.5
    vertex 83.80776420381092 10.037460746890462 2.3125
  endloop
endfacet
facet normal -1.0 0.0 0.0
  outer loop
    vertex 83.80776420381092 36.683966041280335 2.5
    vertex 83.80776420381092 30.974960746890467 2.3125
    vertex 83.80776420381092 30.974960746890467 2.5
  endloop
endfacet
facet normal -1.0 0.0 0.0
  outer loop
    vertex 83.80776420381092 30.974960746890467 2.3125
    vertex 83.80776420381092 36.683966041280335 2.5
    vertex 83.80776420381092 36.683966041280335 2.3125
  endloop
endfacet
facet normal 0.0 0.0 -1.0
  outer loop
    vertex 96.99526420381092 -0.7125392531095501 2.3125
    vertex 96.62026420381092 -8.760086338908142 2.3125
    vertex 96.62026420381092 -0.7125392531095498 2.3125
  endloop
endfacet
facet normal 0.0 0.0 -1.0
  outer loop
    vertex 96.62026420381092 -8.760086338908142 2.3125
    vertex 96.99526420381092 -0.7125392531095501 2.3125
    vertex 96.8116196434282 -8.760086338908142 2.3125
  endloop
endfacet
facet normal 0.0 0.0 -1.0
  outer loop
    vertex 96.8116196434282 -8.760086338908142 2.3125
    vertex 96.99526420381092 -0.7125392531095501 2.3125
    vertex 96.8116196434282 -9.010086338908142 2.3125
  endloop
endfacet
facet normal 0.0 0.0 -1.0
  outer loop
    vertex 96.8116196434282 -9.010086338908142 2.3125
    vertex 96.6202642038109 -23.275039253109558 2.3125
    vertex 96.6202642038109 -9.010086338908142 2.3125
  endloop
endfacet
facet normal 0.0 0.0 -1.0
  outer loop
    vertex 96.6202642038109 -23.275039253109558 2.3125
    vertex 96.8116196434282 -9.010086338908142 2.3125
    vertex 96.9952642038109 -23.275039253109558 2.3125
  endloop
endfacet
facet normal 0.0 0.0 -1.0
  outer loop
    vertex 96.9952642038109 -23.275039253109558 2.3125
    vertex 96.8116196434282 -9.010086338908142 2.3125
    vertex 96.99526420381092 -0.7125392531095501 2.3125
  endloop
endfacet
facet normal 7.632783294297951e-16 1.0 0.0
  outer loop
    vertex 87.55776420381092 -0.7125392531095429 2.125
    vertex 83.80776420381092 -0.71253925310954 2.3125
    vertex 87.55776420381092 -0.7125392531095429 2.3125
  endloop
endfacet
facet normal 7.632783294297951e-16 1.0 0.0
  outer loop
    vertex 83.80776420381092 -0.71253925310954 2.3125
    vertex 87.55776420381092 -0.7125392531095429 2.125
    vertex 83.80776420381092 -0.71253925310954 2.125
  endloop
endfacet
facet normal 7.632783294297951e-16 1.0 0.0
  outer loop
    vertex 83.80776420381092 -0.71253925310954 2.125
    vertex 87.55776420381092 -0.7125392531095429 2.125
    vertex 85.49526420381092 -0.7125392531095414 2.125
  endloop
endfacet
facet normal 0.2786935930266338 -0.9603800712248797 0.0
  outer loop
    vertex 83.80776420381089 -28.984044547499416 2.125
    vertex 87.5577642038109 -27.89582853264923 2.3125
    vertex 83.80776420381089 -28.984044547499416 2.3125
  endloop
endfacet
facet normal 0.2786935930266338 -0.9603800712248797 0.0
  outer loop
    vertex 87.5577642038109 -27.89582853264923 2.3125
    vertex 83.80776420381089 -28.984044547499416 2.125
    vertex 87.5577642038109 -27.89582853264923 2.125
  endloop
endfacet
facet normal 0.2786935930266338 -0.9603800712248797 0.0
  outer loop
    vertex 87.5577642038109 -27.89582853264923 2.125
    vertex 83.80776420381089 -28.984044547499416 2.125
    vertex 85.4952642038109 -28.49434734081683 2.125
  endloop
endfacet
facet normal 0.0 0.0 -1.0
  outer loop
    vertex 89.18276420381092 -0.7125392531095441 2.125
    vertex 87.55776420381092 -7.417889430287603 2.125
    vertex 87.55776420381092 -0.7125392531095429 2.125
  endloop
endfacet
facet normal 0.0 0.0 -1.0
  outer loop
    vertex 87.55776420381092 -7.417889430287603 2.125
    vertex 89.18276420381092 -0.7125392531095441 2.125
    vertex 89.18276420381092 -7.417889430287608 2.125
  endloop
endfacet
facet normal 7.632783294297951e-16 1.0 0.0
  outer loop
    vertex 89.18276420381092 -0.7125392531095441 2.125
    vertex 87.55776420381092 -0.7125392531095429 2.3125
    vertex 89.18276420381092 -0.7125392531095441 2.3125
  endloop
endfacet
facet normal 7.632783294297951e-16 1.0 0.0
  outer loop
    vertex 87.55776420381092 -0.7125392531095429 2.3125
    vertex 89.18276420381092 -0.7125392531095441 2.125
    vertex 87.55776420381092 -0.7125392531095429 2.125
  endloop
endfacet
facet normal 0.0 0.0 -1.0
  outer loop
    vertex 89.18276420381092 -7.417889430287608 2.125
    vertex 87.55776420381092 -9.010086338908135 2.125
    vertex 87.55776420381092 -7.417889430287603 2.125
  endloop
endfacet
facet normal 0.0 0.0 -1.0
  outer loop
    vertex 87.55776420381092 -9.010086338908135 2.125
    vertex 89.18276420381092 -7.417889430287608 2.125
    vertex 89.18276420381092 -9.010086338908135 2.125
  endloop
endfacet
facet normal 0.0 0.0 -1.0
  outer loop
    vertex 89.18276420381092 -9.010086338908135 2.125
    vertex 87.5577642038109 -27.89582853264923 2.125
    vertex 87.55776420381092 -9.010086338908135 2.125
  endloop
endfacet
facet normal 0.0 0.0 -1.0
  outer loop
    vertex 87.5577642038109 -27.89582853264923 2.125
    vertex 89.18276420381092 -9.010086338908135 2.125
    vertex 89.1827642038109 -27.307589514977675 2.125
  endloop
endfacet
facet normal 0.3403781328997978 -0.9402886400694457 0.0
  outer loop
    vertex 87.5577642038109 -27.89582853264923 2.125
    vertex 89.1827642038109 -27.307589514977675 2.3125
    vertex 87.5577642038109 -27.89582853264923 2.3125
  endloop
endfacet
facet normal 0.3403781328997978 -0.9402886400694457 0.0
  outer loop
    vertex 89.1827642038109 -27.307589514977675 2.3125
    vertex 87.5577642038109 -27.89582853264923 2.125
    vertex 89.1827642038109 -27.307589514977675 2.125
  endloop
endfacet
facet normal 0.0 0.0 -1.0
  outer loop
    vertex 91.30776420381092 -0.7125392531095458 2.125
    vertex 89.18276420381092 -7.417889430287608 2.125
    vertex 89.18276420381092 -0.7125392531095441 2.125
  endloop
endfacet
facet normal 0.0 0.0 -1.0
  outer loop
    vertex 89.18276420381092 -7.417889430287608 2.125
    vertex 91.30776420381092 -0.7125392531095458 2.125
    vertex 89.18276420381092 -9.010086338908135 2.125
  endloop
endfacet
facet normal 0.0 0.0 -1.0
  outer loop
    vertex 89.18276420381092 -9.010086338908135 2.125
    vertex 91.30776420381092 -0.7125392531095458 2.125
    vertex 89.1827642038109 -27.307589514977675 2.125
  endloop
endfacet
facet normal 0.0 0.0 -1.0
  outer loop
    vertex 89.1827642038109 -27.307589514977675 2.125
    vertex 91.30776420381092 -0.7125392531095458 2.125
    vertex 91.3077642038109 -23.275039253109554 2.125
  endloop
endfacet
facet normal 7.632783294297951e-16 1.0 0.0
  outer loop
    vertex 91.30776420381092 -0.7125392531095458 2.125
    vertex 89.18276420381092 -0.7125392531095441 2.3125
    vertex 91.30776420381092 -0.7125392531095458 2.3125
  endloop
endfacet
facet normal 7.632783294297951e-16 1.0 0.0
  outer loop
    vertex 89.18276420381092 -0.7125392531095441 2.3125
    vertex 91.30776420381092 -0.7125392531095458 2.125
    vertex 89.18276420381092 -0.7125392531095441 2.125
  endloop
endfacet
facet normal 0.8846825560261293 -0.46619392430948153 0.0
  outer loop
    vertex 89.1827642038109 -27.307589514977675 2.3125
    vertex 91.3077642038109 -23.275039253109554 2.125
    vertex 91.3077642038109 -23.275039253109554 2.3125
  endloop
endfacet
facet normal 0.8846825560261293 -0.46619392430948153 0.0
  outer loop
    vertex 91.3077642038109 -23.275039253109554 2.125
    vertex 89.1827642038109 -27.307589514977675 2.3125
    vertex 89.1827642038109 -27.307589514977675 2.125
  endloop
endfacet
facet normal 0.0 0.0 -1.0
  outer loop
    vertex 96.62026420381092 -0.7125392531095498 2.125
    vertex 93.05776420381092 -1.337539253109549 2.125
    vertex 93.05776420381092 -0.7125392531095471 2.125
  endloop
endfacet
facet normal 0.0 0.0 -1.0
  outer loop
    vertex 93.05776420381092 -1.337539253109549 2.125
    vertex 96.62026420381092 -0.7125392531095498 2.125
    vertex 93.47122957358138 -8.164599765491728 2.125
  endloop
endfacet
facet normal 0.0 0.0 -1.0
  outer loop
    vertex 93.47122957358138 -8.164599765491728 2.125
    vertex 96.62026420381092 -0.7125392531095498 2.125
    vertex 94.22122957358138 -8.16459976549173 2.125
  endloop
endfacet
facet normal 0.0 0.0 -1.0
  outer loop
    vertex 94.22122957358138 -8.16459976549173 2.125
    vertex 96.62026420381092 -0.7125392531095498 2.125
    vertex 94.22122957358138 -8.60209976549173 2.125
  endloop
endfacet
facet normal 0.0 0.0 -1.0
  outer loop
    vertex 94.22122957358138 -8.60209976549173 2.125
    vertex 96.62026420381092 -0.7125392531095498 2.125
    vertex 96.2491196434282 -8.76008633890814 2.125
  endloop
endfacet
facet normal 0.0 0.0 -1.0
  outer loop
    vertex 96.2491196434282 -8.76008633890814 2.125
    vertex 96.62026420381092 -0.7125392531095498 2.125
    vertex 96.62026420381092 -8.760086338908142 2.125
  endloop
endfacet
facet normal 0.0 0.0 -1.0
  outer loop
    vertex 91.93276420381092 -0.7125392531095462 2.125
    vertex 91.3077642038109 -23.275039253109554 2.125
    vertex 91.30776420381092 -0.7125392531095458 2.125
  endloop
endfacet
facet normal 0.0 0.0 -1.0
  outer loop
    vertex 91.3077642038109 -23.275039253109554 2.125
    vertex 91.93276420381092 -0.7125392531095462 2.125
    vertex 91.93276420381092 -1.337539253109548 2.125
  endloop
endfacet
facet normal 0.0 0.0 -1.0
  outer loop
    vertex 91.3077642038109 -23.275039253109554 2.125
    vertex 91.93276420381092 -1.337539253109548 2.125
    vertex 93.47122957358138 -8.60209976549173 2.125
  endloop
endfacet
facet normal 0.0 0.0 -1.0
  outer loop
    vertex 91.3077642038109 -23.275039253109554 2.125
    vertex 93.47122957358138 -8.60209976549173 2.125
    vertex 96.6202642038109 -23.275039253109558 2.125
  endloop
endfacet
facet normal 0.0 0.0 -1.0
  outer loop
    vertex 93.47122957358138 -8.60209976549173 2.125
    vertex 91.93276420381092 -1.337539253109548 2.125
    vertex 93.05776420381092 -1.337539253109549 2.125
  endloop
endfacet
facet normal 0.0 0.0 -1.0
  outer loop
    vertex 93.47122957358138 -8.60209976549173 2.125
    vertex 93.05776420381092 -1.337539253109549 2.125
    vertex 93.47122957358138 -8.164599765491728 2.125
  endloop
endfacet
facet normal 0.0 0.0 -1.0
  outer loop
    vertex 96.6202642038109 -23.275039253109558 2.125
    vertex 93.47122957358138 -8.60209976549173 2.125
    vertex 94.22122957358138 -8.60209976549173 2.125
  endloop
endfacet
facet normal 0.0 0.0 -1.0
  outer loop
    vertex 96.6202642038109 -23.275039253109558 2.125
    vertex 94.22122957358138 -8.60209976549173 2.125
    vertex 96.2491196434282 -9.01008633890814 2.125
  endloop
endfacet
facet normal 0.0 0.0 -1.0
  outer loop
    vertex 96.2491196434282 -9.01008633890814 2.125
    vertex 94.22122957358138 -8.60209976549173 2.125
    vertex 96.2491196434282 -8.76008633890814 2.125
  endloop
endfacet
facet normal 0.0 0.0 -1.0
  outer loop
    vertex 96.6202642038109 -23.275039253109558 2.125
    vertex 96.2491196434282 -9.01008633890814 2.125
    vertex 96.6202642038109 -9.010086338908142 2.125
  endloop
endfacet
facet normal 1.0 -7.632783294297951e-16 0.0
  outer loop
    vertex 96.62026420381092 -8.760086338908142 2.3125
    vertex 96.62026420381092 -0.7125392531095498 2.125
    vertex 96.62026420381092 -0.7125392531095498 2.3125
  endloop
endfacet
facet normal 1.0 -7.632783294297951e-16 0.0
  outer loop
    vertex 96.62026420381092 -0.7125392531095498 2.125
    vertex 96.62026420381092 -8.760086338908142 2.3125
    vertex 96.62026420381092 -8.760086338908142 2.125
  endloop
endfacet
facet normal -7.632783294297951e-16 -1.0 0.0
  outer loop
    vertex 96.2491196434282 -8.76008633890814 2.125
    vertex 96.62026420381092 -8.760086338908142 2.3125
    vertex 96.2491196434282 -8.76008633890814 2.3125
  endloop
endfacet
facet normal -7.632783294297951e-16 -1.0 0.0
  outer loop
    vertex 96.62026420381092 -8.760086338908142 2.3125
    vertex 96.2491196434282 -8.76008633890814 2.125
    vertex 96.62026420381092 -8.760086338908142 2.125
  endloop
endfacet
facet normal 1.0 -7.632783294297951e-16 0.0
  outer loop
    vertex 96.2491196434282 -9.01008633890814 2.3125
    vertex 96.2491196434282 -8.76008633890814 2.125
    vertex 96.2491196434282 -8.76008633890814 2.3125
  endloop
endfacet
facet normal 1.0 -7.632783294297951e-16 0.0
  outer loop
    vertex 96.2491196434282 -8.76008633890814 2.125
    vertex 96.2491196434282 -9.01008633890814 2.3125
    vertex 96.2491196434282 -9.01008633890814 2.125
  endloop
endfacet
facet normal 7.632783294297951e-16 1.0 0.0
  outer loop
    vertex 96.6202642038109 -9.010086338908142 2.125
    vertex 96.2491196434282 -9.01008633890814 2.3125
    vertex 96.6202642038109 -9.010086338908142 2.3125
  endloop
endfacet
facet normal 7.632783294297951e-16 1.0 0.0
  outer loop
    vertex 96.2491196434282 -9.01008633890814 2.3125
    vertex 96.6202642038109 -9.010086338908142 2.125
    vertex 96.2491196434282 -9.01008633890814 2.125
  endloop
endfacet
facet normal 1.0 -7.632783294297951e-16 0.0
  outer loop
    vertex 96.6202642038109 -23.275039253109558 2.3125
    vertex 96.6202642038109 -9.010086338908142 2.125
    vertex 96.6202642038109 -9.010086338908142 2.3125
  endloop
endfacet
facet normal 1.0 -7.632783294297951e-16 0.0
  outer loop
    vertex 96.6202642038109 -9.010086338908142 2.125
    vertex 96.6202642038109 -23.275039253109558 2.3125
    vertex 96.6202642038109 -23.275039253109558 2.125
  endloop
endfacet
facet normal -7.632783294297951e-16 -1.0 0.0
  outer loop
    vertex 91.3077642038109 -23.275039253109554 2.125
    vertex 96.6202642038109 -23.275039253109558 2.3125
    vertex 91.3077642038109 -23.275039253109554 2.3125
  endloop
endfacet
facet normal -7.632783294297951e-16 -1.0 0.0
  outer loop
    vertex 96.6202642038109 -23.275039253109558 2.3125
    vertex 91.3077642038109 -23.275039253109554 2.125
    vertex 96.6202642038109 -23.275039253109558 2.125
  endloop
endfacet
facet normal 7.632783294297951e-16 1.0 0.0
  outer loop
    vertex 91.93276420381092 -0.7125392531095462 2.125
    vertex 91.30776420381092 -0.7125392531095458 2.3125
    vertex 91.93276420381092 -0.7125392531095462 2.3125
  endloop
endfacet
facet normal 7.632783294297951e-16 1.0 0.0
  outer loop
    vertex 91.30776420381092 -0.7125392531095458 2.3125
    vertex 91.93276420381092 -0.7125392531095462 2.125
    vertex 91.30776420381092 -0.7125392531095458 2.125
  endloop
endfacet
facet normal 1.0 -7.632783294297951e-16 0.0
  outer loop
    vertex 91.93276420381092 -1.337539253109548 2.3125
    vertex 91.93276420381092 -0.7125392531095462 2.125
    vertex 91.93276420381092 -0.7125392531095462 2.3125
  endloop
endfacet
facet normal 1.0 -7.632783294297951e-16 0.0
  outer loop
    vertex 91.93276420381092 -0.7125392531095462 2.125
    vertex 91.93276420381092 -1.337539253109548 2.3125
    vertex 91.93276420381092 -1.337539253109548 2.125
  endloop
endfacet
facet normal 7.632783294297951e-16 1.0 0.0
  outer loop
    vertex 93.05776420381092 -1.337539253109549 2.125
    vertex 91.93276420381092 -1.337539253109548 2.3125
    vertex 93.05776420381092 -1.337539253109549 2.3125
  endloop
endfacet
facet normal 7.632783294297951e-16 1.0 0.0
  outer loop
    vertex 91.93276420381092 -1.337539253109548 2.3125
    vertex 93.05776420381092 -1.337539253109549 2.125
    vertex 91.93276420381092 -1.337539253109548 2.125
  endloop
endfacet
facet normal -1.0 7.632783294297951e-16 -0.0
  outer loop
    vertex 93.05776420381092 -1.337539253109549 2.125
    vertex 93.05776420381092 -0.7125392531095471 2.3125
    vertex 93.05776420381092 -0.7125392531095471 2.125
  endloop
endfacet
facet normal -1.0 7.632783294297951e-16 -0.0
  outer loop
    vertex 93.05776420381092 -0.7125392531095471 2.3125
    vertex 93.05776420381092 -1.337539253109549 2.125
    vertex 93.05776420381092 -1.337539253109549 2.3125
  endloop
endfacet
facet normal 7.632783294297951e-16 1.0 0.0
  outer loop
    vertex 96.62026420381092 -0.7125392531095498 2.125
    vertex 93.05776420381092 -0.7125392531095471 2.3125
    vertex 96.62026420381092 -0.7125392531095498 2.3125
  endloop
endfacet
facet normal 7.632783294297951e-16 1.0 0.0
  outer loop
    vertex 93.05776420381092 -0.7125392531095471 2.3125
    vertex 96.62026420381092 -0.7125392531095498 2.125
    vertex 93.05776420381092 -0.7125392531095471 2.125
  endloop
endfacet
facet normal 7.632783294297951e-16 1.0 0.0
  outer loop
    vertex 94.22122957358138 -8.60209976549173 2.125
    vertex 93.47122957358138 -8.60209976549173 2.3125
    vertex 94.22122957358138 -8.60209976549173 2.3125
  endloop
endfacet
facet normal 7.632783294297951e-16 1.0 0.0
  outer loop
    vertex 93.47122957358138 -8.60209976549173 2.3125
    vertex 94.22122957358138 -8.60209976549173 2.125
    vertex 93.47122957358138 -8.60209976549173 2.125
  endloop
endfacet
facet normal -1.0 7.632783294297951e-16 -0.0
  outer loop
    vertex 94.22122957358138 -8.60209976549173 2.125
    vertex 94.22122957358138 -8.16459976549173 2.3125
    vertex 94.22122957358138 -8.16459976549173 2.125
  endloop
endfacet
facet normal -1.0 7.632783294297951e-16 -0.0
  outer loop
    vertex 94.22122957358138 -8.16459976549173 2.3125
    vertex 94.22122957358138 -8.60209976549173 2.125
    vertex 94.22122957358138 -8.60209976549173 2.3125
  endloop
endfacet
facet normal -7.632783294297951e-16 -1.0 0.0
  outer loop
    vertex 93.47122957358138 -8.164599765491728 2.125
    vertex 94.22122957358138 -8.16459976549173 2.3125
    vertex 93.47122957358138 -8.164599765491728 2.3125
  endloop
endfacet
facet normal -7.632783294297951e-16 -1.0 0.0
  outer loop
    vertex 94.22122957358138 -8.16459976549173 2.3125
    vertex 93.47122957358138 -8.164599765491728 2.125
    vertex 94.22122957358138 -8.16459976549173 2.125
  endloop
endfacet
facet normal 1.0 -7.632783294297951e-16 0.0
  outer loop
    vertex 93.47122957358138 -8.60209976549173 2.3125
    vertex 93.47122957358138 -8.164599765491728 2.125
    vertex 93.47122957358138 -8.164599765491728 2.3125
  endloop
endfacet
facet normal 1.0 -7.632783294297951e-16 0.0
  outer loop
    vertex 93.47122957358138 -8.164599765491728 2.125
    vertex 93.47122957358138 -8.60209976549173 2.3125
    vertex 93.47122957358138 -8.60209976549173 2.125
  endloop
endfacet
facet normal 0.0 0.0 -1.0
  outer loop
    vertex 97.99526420381092 -0.7125392531095509 2.125
    vertex 96.9952642038109 -23.275039253109558 2.125
    vertex 96.99526420381092 -0.7125392531095501 2.125
  endloop
endfacet
facet normal 0.0 0.0 -1.0
  outer loop
    vertex 96.9952642038109 -23.275039253109558 2.125
    vertex 97.99526420381092 -0.7125392531095509 2.125
    vertex 97.9952642038109 -23.275039253109558 2.125
  endloop
endfacet
facet normal -7.632783294297951e-16 -1.0 0.0
  outer loop
    vertex 96.9952642038109 -23.275039253109558 2.125
    vertex 97.9952642038109 -23.275039253109558 2.3125
    vertex 96.9952642038109 -23.275039253109558 2.3125
  endloop
endfacet
facet normal -7.632783294297951e-16 -1.0 0.0
  outer loop
    vertex 97.9952642038109 -23.275039253109558 2.3125
    vertex 96.9952642038109 -23.275039253109558 2.125
    vertex 97.9952642038109 -23.275039253109558 2.125
  endloop
endfacet
facet normal -1.0 7.632783294297951e-16 -0.0
  outer loop
    vertex 96.9952642038109 -23.275039253109558 2.125
    vertex 96.99526420381092 -0.7125392531095501 2.3125
    vertex 96.99526420381092 -0.7125392531095501 2.125
  endloop
endfacet
facet normal -1.0 7.632783294297951e-16 -0.0
  outer loop
    vertex 96.99526420381092 -0.7125392531095501 2.3125
    vertex 96.9952642038109 -23.275039253109558 2.125
    vertex 96.9952642038109 -23.275039253109558 2.3125
  endloop
endfacet
facet normal 7.632783294297951e-16 1.0 0.0
  outer loop
    vertex 97.99526420381092 -0.7125392531095509 2.125
    vertex 96.99526420381092 -0.7125392531095501 2.3125
    vertex 97.99526420381092 -0.7125392531095509 2.3125
  endloop
endfacet
facet normal 7.632783294297951e-16 1.0 0.0
  outer loop
    vertex 96.99526420381092 -0.7125392531095501 2.3125
    vertex 97.99526420381092 -0.7125392531095509 2.125
    vertex 96.99526420381092 -0.7125392531095501 2.125
  endloop
endfacet
facet normal 1.0 -7.632783294297951e-16 0.0
  outer loop
    vertex 97.9952642038109 -23.275039253109558 2.3125
    vertex 97.99526420381092 -0.7125392531095509 2.125
    vertex 97.99526420381092 -0.7125392531095509 2.3125
  endloop
endfacet
facet normal 1.0 -7.632783294297951e-16 0.0
  outer loop
    vertex 97.99526420381092 -0.7125392531095509 2.125
    vertex 97.9952642038109 -23.275039253109558 2.3125
    vertex 97.9952642038109 -23.275039253109558 2.125
  endloop
endfacet
facet normal -7.632783294297951e-16 -1.0 0.0
  outer loop
    vertex 84.2019833020882 -8.88650963994916 2.125
    vertex 85.2019833020882 -8.886509639949162 2.3125
    vertex 84.2019833020882 -8.88650963994916 2.3125
  endloop
endfacet
facet normal -7.632783294297951e-16 -1.0 0.0
  outer loop
    vertex 85.2019833020882 -8.886509639949162 2.3125
    vertex 84.2019833020882 -8.88650963994916 2.125
    vertex 85.2019833020882 -8.886509639949162 2.125
  endloop
endfacet
facet normal -7.632783294297951e-16 -1.0 0.0
  outer loop
    vertex 83.80776420381092 -2.337539253109542 2.125
    vertex 85.49526420381092 -2.337539253109543 2.3125
    vertex 83.80776420381092 -2.337539253109542 2.3125
  endloop
endfacet
facet normal -7.632783294297951e-16 -1.0 0.0
  outer loop
    vertex 85.49526420381092 -2.337539253109543 2.3125
    vertex 83.80776420381092 -2.337539253109542 2.125
    vertex 85.30776420381092 -2.3375392531095427 2.125
  endloop
endfacet
facet normal 0.0 0.0 -1.0
  outer loop
    vertex 87.55776420381092 -0.7125392531095429 2.125
    vertex 85.49526420381092 -2.337539253109543 2.125
    vertex 85.49526420381092 -0.7125392531095414 2.125
  endloop
endfacet
facet normal 0.0 0.0 -1.0
  outer loop
    vertex 85.49526420381092 -2.337539253109543 2.125
    vertex 87.55776420381092 -0.7125392531095429 2.125
    vertex 85.4952642038109 -23.275039253109547 2.125
  endloop
endfacet
facet normal 0.0 0.0 -1.0
  outer loop
    vertex 85.4952642038109 -23.275039253109547 2.125
    vertex 87.55776420381092 -0.7125392531095429 2.125
    vertex 85.4952642038109 -28.49434734081683 2.125
  endloop
endfacet
facet normal 0.0 0.0 -1.0
  outer loop
    vertex 85.4952642038109 -28.49434734081683 2.125
    vertex 87.55776420381092 -0.7125392531095429 2.125
    vertex 87.5577642038109 -27.89582853264923 2.125
  endloop
endfacet
facet normal 0.0 0.0 -1.0
  outer loop
    vertex 87.5577642038109 -27.89582853264923 2.125
    vertex 87.55776420381092 -0.7125392531095429 2.125
    vertex 87.55776420381092 -7.417889430287603 2.125
  endloop
endfacet
facet normal 0.0 0.0 -1.0
  outer loop
    vertex 87.5577642038109 -27.89582853264923 2.125
    vertex 87.55776420381092 -7.417889430287603 2.125
    vertex 87.55776420381092 -9.010086338908135 2.125
  endloop
endfacet
facet normal 0.0 0.0 -1.0
  outer loop
    vertex 85.3077642038109 -23.275039253109547 2.125
    vertex 83.80776420381089 -28.984044547499416 2.125
    vertex 83.8077642038109 -23.275039253109547 2.125
  endloop
endfacet
facet normal 0.0 0.0 -1.0
  outer loop
    vertex 83.80776420381089 -28.984044547499416 2.125
    vertex 85.3077642038109 -23.275039253109547 2.125
    vertex 85.4952642038109 -28.49434734081683 2.125
  endloop
endfacet
facet normal 0.0 0.0 -1.0
  outer loop
    vertex 85.4952642038109 -28.49434734081683 2.125
    vertex 85.3077642038109 -23.275039253109547 2.125
    vertex 85.4952642038109 -23.275039253109547 2.125
  endloop
endfacet
facet normal 7.632783294297951e-16 1.0 0.0
  outer loop
    vertex 85.3077642038109 -23.275039253109547 2.125
    vertex 85.4952642038109 -23.275039253109547 2.3125
    vertex 85.4952642038109 -23.275039253109547 2.125
  endloop
endfacet
facet normal -7.632783294297951e-16 -1.0 0.0
  outer loop
    vertex 85.49526420381092 -2.337539253109543 2.125
    vertex 85.49526420381092 -2.337539253109543 2.3125
    vertex 85.30776420381092 -2.3375392531095427 2.125
  endloop
endfacet
facet normal 7.632783294297951e-16 1.0 0.0
  outer loop
    vertex 85.3077642038109 -23.275039253109547 2.125
    vertex 83.8077642038109 -23.275039253109547 2.3125
    vertex 85.4952642038109 -23.275039253109547 2.3125
  endloop
endfacet
facet normal 7.632783294297951e-16 1.0 0.0
  outer loop
    vertex 83.8077642038109 -23.275039253109547 2.3125
    vertex 85.3077642038109 -23.275039253109547 2.125
    vertex 83.8077642038109 -23.275039253109547 2.125
  endloop
endfacet
facet normal -0.7071067811865476 5.397192826725477e-16 0.7071067811865476
  outer loop
    vertex 85.3077642038109 -23.275039253109547 2.125
    vertex 85.49526420381092 -2.337539253109543 2.3125
    vertex 85.30776420381092 -2.3375392531095427 2.125
  endloop
endfacet
facet normal -0.7071067811865476 5.397192826725477e-16 0.7071067811865476
  outer loop
    vertex 85.49526420381092 -2.337539253109543 2.3125
    vertex 85.3077642038109 -23.275039253109547 2.125
    vertex 85.4952642038109 -23.275039253109547 2.3125
  endloop
endfacet
facet normal 0.0 0.0 -1.0
  outer loop
    vertex 85.30776420381092 -2.3375392531095427 2.125
    vertex 83.8077642038109 -23.275039253109547 2.125
    vertex 83.80776420381092 -2.337539253109542 2.125
  endloop
endfacet
facet normal 0.0 0.0 -1.0
  outer loop
    vertex 83.8077642038109 -23.275039253109547 2.125
    vertex 85.30776420381092 -2.3375392531095427 2.125
    vertex 85.3077642038109 -23.275039253109547 2.125
  endloop
endfacet
facet normal -1.0 7.632783294297951e-16 -0.0
  outer loop
    vertex 83.8077642038109 -23.275039253109547 2.125
    vertex 83.80776420381092 -2.337539253109542 2.3125
    vertex 83.80776420381092 -2.337539253109542 2.125
  endloop
endfacet
facet normal -1.0 7.632783294297951e-16 -0.0
  outer loop
    vertex 83.80776420381092 -2.337539253109542 2.3125
    vertex 83.8077642038109 -23.275039253109547 2.125
    vertex 83.8077642038109 -23.275039253109547 2.3125
  endloop
endfacet
facet normal 0.0 0.0 -1.0
  outer loop
    vertex 85.49526420381092 -0.7125392531095414 2.125
    vertex 83.80776420381092 -2.337539253109542 2.125
    vertex 83.80776420381092 -0.71253925310954 2.125
  endloop
endfacet
facet normal 0.0 0.0 -1.0
  outer loop
    vertex 83.80776420381092 -2.337539253109542 2.125
    vertex 85.49526420381092 -0.7125392531095414 2.125
    vertex 85.30776420381092 -2.3375392531095427 2.125
  endloop
endfacet
facet normal 0.0 0.0 -1.0
  outer loop
    vertex 85.30776420381092 -2.3375392531095427 2.125
    vertex 85.49526420381092 -0.7125392531095414 2.125
    vertex 85.49526420381092 -2.337539253109543 2.125
  endloop
endfacet
facet normal 0.0 0.0 -1.0
  outer loop
    vertex 87.55776420381092 -0.7125392531095429 2.3125
    vertex 83.80776420381092 -2.337539253109542 2.3125
    vertex 83.80776420381092 -0.71253925310954 2.3125
  endloop
endfacet
facet normal 0.0 0.0 -1.0
  outer loop
    vertex 83.80776420381092 -2.337539253109542 2.3125
    vertex 87.55776420381092 -0.7125392531095429 2.3125
    vertex 85.49526420381092 -2.337539253109543 2.3125
  endloop
endfacet
facet normal 0.0 0.0 -1.0
  outer loop
    vertex 85.49526420381092 -2.337539253109543 2.3125
    vertex 87.55776420381092 -0.7125392531095429 2.3125
    vertex 85.4952642038109 -23.275039253109547 2.3125
  endloop
endfacet
facet normal 0.0 0.0 -1.0
  outer loop
    vertex 96.62026420381092 -0.7125392531095498 2.3125
    vertex 93.05776420381092 -1.337539253109549 2.3125
    vertex 93.05776420381092 -0.7125392531095471 2.3125
  endloop
endfacet
facet normal 0.0 0.0 -1.0
  outer loop
    vertex 93.05776420381092 -1.337539253109549 2.3125
    vertex 96.62026420381092 -0.7125392531095498 2.3125
    vertex 96.2491196434282 -8.76008633890814 2.3125
  endloop
endfacet
facet normal 0.0 0.0 -1.0
  outer loop
    vertex 96.2491196434282 -8.76008633890814 2.3125
    vertex 96.62026420381092 -0.7125392531095498 2.3125
    vertex 96.62026420381092 -8.760086338908142 2.3125
  endloop
endfacet
facet normal 0.0 0.0 -1.0
  outer loop
    vertex 85.4952642038109 -23.275039253109547 2.3125
    vertex 83.80776420381089 -28.984044547499416 2.3125
    vertex 83.8077642038109 -23.275039253109547 2.3125
  endloop
endfacet
facet normal 0.0 0.0 -1.0
  outer loop
    vertex 83.80776420381089 -28.984044547499416 2.3125
    vertex 85.4952642038109 -23.275039253109547 2.3125
    vertex 87.5577642038109 -27.89582853264923 2.3125
  endloop
endfacet
facet normal 0.0 0.0 -1.0
  outer loop
    vertex 87.5577642038109 -27.89582853264923 2.3125
    vertex 85.4952642038109 -23.275039253109547 2.3125
    vertex 87.55776420381092 -0.7125392531095429 2.3125
  endloop
endfacet
facet normal 0.0 0.0 -1.0
  outer loop
    vertex 87.5577642038109 -27.89582853264923 2.3125
    vertex 87.55776420381092 -0.7125392531095429 2.3125
    vertex 89.18276420381092 -0.7125392531095441 2.3125
  endloop
endfacet
facet normal 0.0 0.0 -1.0
  outer loop
    vertex 87.5577642038109 -27.89582853264923 2.3125
    vertex 89.18276420381092 -0.7125392531095441 2.3125
    vertex 89.1827642038109 -27.307589514977675 2.3125
  endloop
endfacet
facet normal 0.0 0.0 -1.0
  outer loop
    vertex 89.1827642038109 -27.307589514977675 2.3125
    vertex 89.18276420381092 -0.7125392531095441 2.3125
    vertex 91.30776420381092 -0.7125392531095458 2.3125
  endloop
endfacet
facet normal 0.0 0.0 -1.0
  outer loop
    vertex 89.1827642038109 -27.307589514977675 2.3125
    vertex 91.30776420381092 -0.7125392531095458 2.3125
    vertex 91.3077642038109 -23.275039253109554 2.3125
  endloop
endfacet
facet normal 0.0 0.0 -1.0
  outer loop
    vertex 91.3077642038109 -23.275039253109554 2.3125
    vertex 91.30776420381092 -0.7125392531095458 2.3125
    vertex 91.93276420381092 -0.7125392531095462 2.3125
  endloop
endfacet
facet normal 0.0 0.0 -1.0
  outer loop
    vertex 91.3077642038109 -23.275039253109554 2.3125
    vertex 91.93276420381092 -0.7125392531095462 2.3125
    vertex 91.93276420381092 -1.337539253109548 2.3125
  endloop
endfacet
facet normal 0.0 0.0 -1.0
  outer loop
    vertex 91.3077642038109 -23.275039253109554 2.3125
    vertex 91.93276420381092 -1.337539253109548 2.3125
    vertex 96.6202642038109 -23.275039253109558 2.3125
  endloop
endfacet
facet normal 0.0 0.0 -1.0
  outer loop
    vertex 96.6202642038109 -23.275039253109558 2.3125
    vertex 91.93276420381092 -1.337539253109548 2.3125
    vertex 93.05776420381092 -1.337539253109549 2.3125
  endloop
endfacet
facet normal 0.0 0.0 -1.0
  outer loop
    vertex 96.6202642038109 -23.275039253109558 2.3125
    vertex 93.05776420381092 -1.337539253109549 2.3125
    vertex 96.2491196434282 -9.01008633890814 2.3125
  endloop
endfacet
facet normal 0.0 0.0 -1.0
  outer loop
    vertex 96.2491196434282 -9.01008633890814 2.3125
    vertex 93.05776420381092 -1.337539253109549 2.3125
    vertex 96.2491196434282 -8.76008633890814 2.3125
  endloop
endfacet
facet normal 0.0 0.0 -1.0
  outer loop
    vertex 96.6202642038109 -23.275039253109558 2.3125
    vertex 96.2491196434282 -9.01008633890814 2.3125
    vertex 96.6202642038109 -9.010086338908142 2.3125
  endloop
endfacet
facet normal 0.0 0.0 -1.0
  outer loop
    vertex 85.49526420381092 -2.337539253109543 2.3125
    vertex 83.8077642038109 -23.275039253109547 2.3125
    vertex 83.80776420381092 -2.337539253109542 2.3125
  endloop
endfacet
facet normal 0.0 0.0 -1.0
  outer loop
    vertex 83.8077642038109 -23.275039253109547 2.3125
    vertex 85.49526420381092 -2.337539253109543 2.3125
    vertex 85.4952642038109 -23.275039253109547 2.3125
  endloop
endfacet
facet normal -1.0 7.632783294297951e-16 -0.0
  outer loop
    vertex 85.4952642038109 -23.275039253109547 2.125
    vertex 85.49526420381092 -2.337539253109543 2.3125
    vertex 85.49526420381092 -2.337539253109543 2.125
  endloop
endfacet
facet normal -1.0 7.632783294297951e-16 -0.0
  outer loop
    vertex 85.49526420381092 -2.337539253109543 2.3125
    vertex 85.4952642038109 -23.275039253109547 2.125
    vertex 85.4952642038109 -23.275039253109547 2.3125
  endloop
endfacet
facet normal -1.0 7.632783294297951e-16 -0.0
  outer loop
    vertex 83.80776420381092 -2.337539253109542 2.125
    vertex 83.80776420381092 -0.71253925310954 2.3125
    vertex 83.80776420381092 -0.71253925310954 2.125
  endloop
endfacet
facet normal -1.0 7.632783294297951e-16 -0.0
  outer loop
    vertex 83.80776420381092 -0.71253925310954 2.3125
    vertex 83.80776420381092 -2.337539253109542 2.125
    vertex 83.80776420381092 -2.337539253109542 2.3125
  endloop
endfacet
facet normal -1.0 7.632783294297951e-16 -0.0
  outer loop
    vertex 83.80776420381089 -28.984044547499416 2.125
    vertex 83.8077642038109 -23.275039253109547 2.3125
    vertex 83.8077642038109 -23.275039253109547 2.125
  endloop
endfacet
facet normal -1.0 7.632783294297951e-16 -0.0
  outer loop
    vertex 83.8077642038109 -23.275039253109547 2.3125
    vertex 83.80776420381089 -28.984044547499416 2.125
    vertex 83.80776420381089 -28.984044547499416 2.3125
  endloop
endfacet
facet normal 0.0 0.0 1.0
  outer loop
    vertex 100.6257291358701 8.41246074689046 2.3125
    vertex 100.2064547543931 22.59996074689046 2.3125
    vertex 100.2064547543931 8.41246074689046 2.3125
  endloop
endfacet
facet normal 0.0 0.0 1.0
  outer loop
    vertex 100.2064547543931 22.59996074689046 2.3125
    vertex 100.6257291358701 8.41246074689046 2.3125
    vertex 100.6257291358701 22.59996074689046 2.3125
  endloop
endfacet
facet normal 0.0 0.0 1.0
  outer loop
    vertex 100.6257291358701 23.532221564489944 2.3125
    vertex 100.2064547543931 30.188471564489944 2.3125
    vertex 100.2064547543931 23.532221564489944 2.3125
  endloop
endfacet
facet normal 0.0 0.0 1.0
  outer loop
    vertex 100.2064547543931 30.188471564489944 2.3125
    vertex 100.6257291358701 23.532221564489944 2.3125
    vertex 100.2064547543931 36.844721564489944 2.3125
  endloop
endfacet
facet normal 0.0 0.0 1.0
  outer loop
    vertex 100.2064547543931 36.844721564489944 2.3125
    vertex 100.6257291358701 23.532221564489944 2.3125
    vertex 100.6257291358701 36.844721564489944 2.3125
  endloop
endfacet
facet normal 0.0 0.0 1.0
  outer loop
    vertex 100.2064547543931 8.41246074689046 2.5
    vertex 98.99526420381092 22.59996074689046 2.5
    vertex 98.99526420381092 8.41246074689046 2.5
  endloop
endfacet
facet normal 0.0 0.0 1.0
  outer loop
    vertex 98.99526420381092 22.59996074689046 2.5
    vertex 100.2064547543931 8.41246074689046 2.5
    vertex 100.2064547543931 22.59996074689046 2.5
  endloop
endfacet
facet normal 0.0 -1.0 0.0
  outer loop
    vertex 100.2064547543931 8.41246074689046 2.5
    vertex 98.99526420381092 8.41246074689046 2.3125
    vertex 100.2064547543931 8.41246074689046 2.3125
  endloop
endfacet
facet normal 0.0 -1.0 0.0
  outer loop
    vertex 98.99526420381092 8.41246074689046 2.3125
    vertex 100.2064547543931 8.41246074689046 2.5
    vertex 98.99526420381092 8.41246074689046 2.5
  endloop
endfacet
facet normal 1.0 0.0 0.0
  outer loop
    vertex 100.2064547543931 22.59996074689046 2.3125
    vertex 100.2064547543931 8.41246074689046 2.5
    vertex 100.2064547543931 8.41246074689046 2.3125
  endloop
endfacet
facet normal 1.0 0.0 0.0
  outer loop
    vertex 100.2064547543931 8.41246074689046 2.5
    vertex 100.2064547543931 22.59996074689046 2.3125
    vertex 100.2064547543931 22.59996074689046 2.5
  endloop
endfacet
facet normal 0.0 1.0 0.0
  outer loop
    vertex 98.99526420381092 22.59996074689046 2.5
    vertex 100.2064547543931 22.59996074689046 2.3125
    vertex 98.99526420381092 22.59996074689046 2.3125
  endloop
endfacet
facet normal 0.0 1.0 0.0
  outer loop
    vertex 100.2064547543931 22.59996074689046 2.3125
    vertex 98.99526420381092 22.59996074689046 2.5
    vertex 100.2064547543931 22.59996074689046 2.5
  endloop
endfacet
facet normal -1.0 0.0 0.0
  outer loop
    vertex 98.99526420381092 22.59996074689046 2.5
    vertex 98.99526420381092 8.41246074689046 2.3125
    vertex 98.99526420381092 8.41246074689046 2.5
  endloop
endfacet
facet normal -1.0 0.0 0.0
  outer loop
    vertex 98.99526420381092 8.41246074689046 2.3125
    vertex 98.99526420381092 22.59996074689046 2.5
    vertex 98.99526420381092 22.59996074689046 2.3125
  endloop
endfacet
facet normal 0.0 0.0 1.0
  outer loop
    vertex 101.8132291358701 8.41246074689046 2.5
    vertex 100.6257291358701 22.59996074689046 2.5
    vertex 100.6257291358701 8.41246074689046 2.5
  endloop
endfacet
facet normal 0.0 0.0 1.0
  outer loop
    vertex 100.6257291358701 22.59996074689046 2.5
    vertex 101.8132291358701 8.41246074689046 2.5
    vertex 101.8132291358701 22.59996074689046 2.5
  endloop
endfacet
facet normal 0.0 1.0 0.0
  outer loop
    vertex 100.6257291358701 22.59996074689046 2.5
    vertex 101.8132291358701 22.59996074689046 2.3125
    vertex 100.6257291358701 22.59996074689046 2.3125
  endloop
endfacet
facet normal 0.0 1.0 0.0
  outer loop
    vertex 101.8132291358701 22.59996074689046 2.3125
    vertex 100.6257291358701 22.59996074689046 2.5
    vertex 101.8132291358701 22.59996074689046 2.5
  endloop
endfacet
facet normal -1.0 0.0 0.0
  outer loop
    vertex 100.6257291358701 22.59996074689046 2.5
    vertex 100.6257291358701 8.41246074689046 2.3125
    vertex 100.6257291358701 8.41246074689046 2.5
  endloop
endfacet
facet normal -1.0 0.0 0.0
  outer loop
    vertex 100.6257291358701 8.41246074689046 2.3125
    vertex 100.6257291358701 22.59996074689046 2.5
    vertex 100.6257291358701 22.59996074689046 2.3125
  endloop
endfacet
facet normal 0.0 -1.0 0.0
  outer loop
    vertex 101.8132291358701 8.41246074689046 2.5
    vertex 100.6257291358701 8.41246074689046 2.3125
    vertex 101.8132291358701 8.41246074689046 2.3125
  endloop
endfacet
facet normal 0.0 -1.0 0.0
  outer loop
    vertex 100.6257291358701 8.41246074689046 2.3125
    vertex 101.8132291358701 8.41246074689046 2.5
    vertex 100.6257291358701 8.41246074689046 2.5
  endloop
endfacet
facet normal 1.0 0.0 0.0
  outer loop
    vertex 101.8132291358701 22.59996074689046 2.3125
    vertex 101.8132291358701 8.41246074689046 2.5
    vertex 101.8132291358701 8.41246074689046 2.3125
  endloop
endfacet
facet normal 1.0 0.0 0.0
  outer loop
    vertex 101.8132291358701 8.41246074689046 2.5
    vertex 101.8132291358701 22.59996074689046 2.3125
    vertex 101.8132291358701 22.59996074689046 2.5
  endloop
endfacet
facet normal 0.0 0.0 1.0
  outer loop
    vertex 100.2064547543931 23.532221564489944 2.5
    vertex 98.9564547543931 30.188471564489944 2.5
    vertex 98.9564547543931 23.532221564489944 2.5
  endloop
endfacet
facet normal 0.0 0.0 1.0
  outer loop
    vertex 98.9564547543931 30.188471564489944 2.5
    vertex 100.2064547543931 23.532221564489944 2.5
    vertex 100.2064547543931 30.188471564489944 2.5
  endloop
endfacet
facet normal 0.0 -1.0 0.0
  outer loop
    vertex 100.2064547543931 23.532221564489944 2.5
    vertex 98.9564547543931 23.532221564489944 2.3125
    vertex 100.2064547543931 23.532221564489944 2.3125
  endloop
endfacet
facet normal 0.0 -1.0 0.0
  outer loop
    vertex 98.9564547543931 23.532221564489944 2.3125
    vertex 100.2064547543931 23.532221564489944 2.5
    vertex 98.9564547543931 23.532221564489944 2.5
  endloop
endfacet
facet normal 1.0 0.0 0.0
  outer loop
    vertex 100.2064547543931 30.188471564489944 2.3125
    vertex 100.2064547543931 23.532221564489944 2.5
    vertex 100.2064547543931 23.532221564489944 2.3125
  endloop
endfacet
facet normal 1.0 0.0 0.0
  outer loop
    vertex 100.2064547543931 23.532221564489944 2.5
    vertex 100.2064547543931 30.188471564489944 2.3125
    vertex 100.2064547543931 30.188471564489944 2.5
  endloop
endfacet
facet normal -1.0 0.0 0.0
  outer loop
    vertex 98.9564547543931 30.188471564489944 2.5
    vertex 98.9564547543931 23.532221564489944 2.3125
    vertex 98.9564547543931 23.532221564489944 2.5
  endloop
endfacet
facet normal -1.0 0.0 0.0
  outer loop
    vertex 98.9564547543931 23.532221564489944 2.3125
    vertex 98.9564547543931 30.188471564489944 2.5
    vertex 98.9564547543931 30.188471564489944 2.3125
  endloop
endfacet
facet normal 0.0 0.0 1.0
  outer loop
    vertex 101.8314547543931 23.532221564489944 2.5
    vertex 100.6257291358701 36.844721564489944 2.5
    vertex 100.6257291358701 23.532221564489944 2.5
  endloop
endfacet
facet normal 0.0 0.0 1.0
  outer loop
    vertex 100.6257291358701 36.844721564489944 2.5
    vertex 101.8314547543931 23.532221564489944 2.5
    vertex 101.8314547543931 36.844721564489944 2.5
  endloop
endfacet
facet normal 0.0 1.0 0.0
  outer loop
    vertex 100.6257291358701 36.844721564489944 2.5
    vertex 101.8314547543931 36.844721564489944 2.3125
    vertex 100.6257291358701 36.844721564489944 2.3125
  endloop
endfacet
facet normal 0.0 1.0 0.0
  outer loop
    vertex 101.8314547543931 36.844721564489944 2.3125
    vertex 100.6257291358701 36.844721564489944 2.5
    vertex 101.8314547543931 36.844721564489944 2.5
  endloop
endfacet
facet normal -1.0 0.0 0.0
  outer loop
    vertex 100.6257291358701 36.844721564489944 2.5
    vertex 100.6257291358701 23.532221564489944 2.3125
    vertex 100.6257291358701 23.532221564489944 2.5
  endloop
endfacet
facet normal -1.0 0.0 0.0
  outer loop
    vertex 100.6257291358701 23.532221564489944 2.3125
    vertex 100.6257291358701 36.844721564489944 2.5
    vertex 100.6257291358701 36.844721564489944 2.3125
  endloop
endfacet
facet normal 0.0 -1.0 0.0
  outer loop
    vertex 101.8314547543931 23.532221564489944 2.5
    vertex 100.6257291358701 23.532221564489944 2.3125
    vertex 101.8314547543931 23.532221564489944 2.3125
  endloop
endfacet
facet normal 0.0 -1.0 0.0
  outer loop
    vertex 100.6257291358701 23.532221564489944 2.3125
    vertex 101.8314547543931 23.532221564489944 2.5
    vertex 100.6257291358701 23.532221564489944 2.5
  endloop
endfacet
facet normal 1.0 0.0 0.0
  outer loop
    vertex 101.8314547543931 36.844721564489944 2.3125
    vertex 101.8314547543931 23.532221564489944 2.5
    vertex 101.8314547543931 23.532221564489944 2.3125
  endloop
endfacet
facet normal 1.0 0.0 0.0
  outer loop
    vertex 101.8314547543931 23.532221564489944 2.5
    vertex 101.8314547543931 36.844721564489944 2.3125
    vertex 101.8314547543931 36.844721564489944 2.5
  endloop
endfacet
facet normal 0.0 0.0 1.0
  outer loop
    vertex 100.2064547543931 30.188471564489944 2.5
    vertex 98.9564547543931 36.844721564489944 2.5
    vertex 98.9564547543931 30.188471564489944 2.5
  endloop
endfacet
facet normal 0.0 0.0 1.0
  outer loop
    vertex 98.9564547543931 36.844721564489944 2.5
    vertex 100.2064547543931 30.188471564489944 2.5
    vertex 100.2064547543931 36.844721564489944 2.5
  endloop
endfacet
facet normal -1.0 0.0 0.0
  outer loop
    vertex 98.9564547543931 36.844721564489944 2.5
    vertex 98.9564547543931 30.188471564489944 2.3125
    vertex 98.9564547543931 30.188471564489944 2.5
  endloop
endfacet
facet normal -1.0 0.0 0.0
  outer loop
    vertex 98.9564547543931 30.188471564489944 2.3125
    vertex 98.9564547543931 36.844721564489944 2.5
    vertex 98.9564547543931 36.844721564489944 2.3125
  endloop
endfacet
facet normal 1.0 0.0 0.0
  outer loop
    vertex 100.2064547543931 36.844721564489944 2.3125
    vertex 100.2064547543931 30.188471564489944 2.5
    vertex 100.2064547543931 30.188471564489944 2.3125
  endloop
endfacet
facet normal 1.0 0.0 0.0
  outer loop
    vertex 100.2064547543931 30.188471564489944 2.5
    vertex 100.2064547543931 36.844721564489944 2.3125
    vertex 100.2064547543931 36.844721564489944 2.5
  endloop
endfacet
facet normal 0.0 1.0 0.0
  outer loop
    vertex 98.9564547543931 36.844721564489944 2.5
    vertex 100.2064547543931 36.844721564489944 2.3125
    vertex 98.9564547543931 36.844721564489944 2.3125
  endloop
endfacet
facet normal 0.0 1.0 0.0
  outer loop
    vertex 100.2064547543931 36.844721564489944 2.3125
    vertex 98.9564547543931 36.844721564489944 2.5
    vertex 100.2064547543931 36.844721564489944 2.5
  endloop
endfacet
facet normal 0.0 0.0 1.0
  outer loop
    vertex 100.66453858528791 -29.144800070709046 2.3125
    vertex 100.24526420381092 -14.957300070709046 2.3125
    vertex 100.24526420381092 -29.144800070709046 2.3125
  endloop
endfacet
facet normal 0.0 0.0 1.0
  outer loop
    vertex 100.24526420381092 -14.957300070709046 2.3125
    vertex 100.66453858528791 -29.144800070709046 2.3125
    vertex 100.66453858528791 -14.957300070709046 2.3125
  endloop
endfacet
facet normal 0.0 0.0 1.0
  outer loop
    vertex 100.66453858528791 -14.025039253109561 2.3125
    vertex 100.24526420381092 -7.368789253109561 2.3125
    vertex 100.24526420381092 -14.025039253109561 2.3125
  endloop
endfacet
facet normal 0.0 0.0 1.0
  outer loop
    vertex 100.24526420381092 -7.368789253109561 2.3125
    vertex 100.66453858528791 -14.025039253109561 2.3125
    vertex 100.24526420381092 -0.7125392531095613 2.3125
  endloop
endfacet
facet normal 0.0 0.0 1.0
  outer loop
    vertex 100.24526420381092 -0.7125392531095613 2.3125
    vertex 100.66453858528791 -14.025039253109561 2.3125
    vertex 100.66453858528791 -0.7125392531095613 2.3125
  endloop
endfacet
facet normal 0.0 0.0 1.0
  outer loop
    vertex 100.24526420381092 -29.144800070709046 2.5
    vertex 99.03407365322873 -14.957300070709046 2.5
    vertex 99.03407365322873 -29.144800070709046 2.5
  endloop
endfacet
facet normal 0.0 0.0 1.0
  outer loop
    vertex 99.03407365322873 -14.957300070709046 2.5
    vertex 100.24526420381092 -29.144800070709046 2.5
    vertex 100.24526420381092 -14.957300070709046 2.5
  endloop
endfacet
facet normal 0.0 -1.0 0.0
  outer loop
    vertex 100.24526420381092 -29.144800070709046 2.5
    vertex 99.03407365322873 -29.144800070709046 2.3125
    vertex 100.24526420381092 -29.144800070709046 2.3125
  endloop
endfacet
facet normal 0.0 -1.0 0.0
  outer loop
    vertex 99.03407365322873 -29.144800070709046 2.3125
    vertex 100.24526420381092 -29.144800070709046 2.5
    vertex 99.03407365322873 -29.144800070709046 2.5
  endloop
endfacet
facet normal 1.0 0.0 0.0
  outer loop
    vertex 100.24526420381092 -14.957300070709046 2.3125
    vertex 100.24526420381092 -29.144800070709046 2.5
    vertex 100.24526420381092 -29.144800070709046 2.3125
  endloop
endfacet
facet normal 1.0 0.0 0.0
  outer loop
    vertex 100.24526420381092 -29.144800070709046 2.5
    vertex 100.24526420381092 -14.957300070709046 2.3125
    vertex 100.24526420381092 -14.957300070709046 2.5
  endloop
endfacet
facet normal 0.0 1.0 0.0
  outer loop
    vertex 99.03407365322873 -14.957300070709046 2.5
    vertex 100.24526420381092 -14.957300070709046 2.3125
    vertex 99.03407365322873 -14.957300070709046 2.3125
  endloop
endfacet
facet normal 0.0 1.0 0.0
  outer loop
    vertex 100.24526420381092 -14.957300070709046 2.3125
    vertex 99.03407365322873 -14.957300070709046 2.5
    vertex 100.24526420381092 -14.957300070709046 2.5
  endloop
endfacet
facet normal -1.0 0.0 0.0
  outer loop
    vertex 99.03407365322873 -14.957300070709046 2.5
    vertex 99.03407365322873 -29.144800070709046 2.3125
    vertex 99.03407365322873 -29.144800070709046 2.5
  endloop
endfacet
facet normal -1.0 0.0 0.0
  outer loop
    vertex 99.03407365322873 -29.144800070709046 2.3125
    vertex 99.03407365322873 -14.957300070709046 2.5
    vertex 99.03407365322873 -14.957300070709046 2.3125
  endloop
endfacet
facet normal 0.0 0.0 1.0
  outer loop
    vertex 101.85203858528791 -29.144800070709046 2.5
    vertex 100.66453858528791 -14.957300070709046 2.5
    vertex 100.66453858528791 -29.144800070709046 2.5
  endloop
endfacet
facet normal 0.0 0.0 1.0
  outer loop
    vertex 100.66453858528791 -14.957300070709046 2.5
    vertex 101.85203858528791 -29.144800070709046 2.5
    vertex 101.85203858528791 -14.957300070709046 2.5
  endloop
endfacet
facet normal 0.0 1.0 0.0
  outer loop
    vertex 100.66453858528791 -14.957300070709046 2.5
    vertex 101.85203858528791 -14.957300070709046 2.3125
    vertex 100.66453858528791 -14.957300070709046 2.3125
  endloop
endfacet
facet normal 0.0 1.0 0.0
  outer loop
    vertex 101.85203858528791 -14.957300070709046 2.3125
    vertex 100.66453858528791 -14.957300070709046 2.5
    vertex 101.85203858528791 -14.957300070709046 2.5
  endloop
endfacet
facet normal -1.0 0.0 0.0
  outer loop
    vertex 100.66453858528791 -14.957300070709046 2.5
    vertex 100.66453858528791 -29.144800070709046 2.3125
    vertex 100.66453858528791 -29.144800070709046 2.5
  endloop
endfacet
facet normal -1.0 0.0 0.0
  outer loop
    vertex 100.66453858528791 -29.144800070709046 2.3125
    vertex 100.66453858528791 -14.957300070709046 2.5
    vertex 100.66453858528791 -14.957300070709046 2.3125
  endloop
endfacet
facet normal 0.0 -1.0 0.0
  outer loop
    vertex 101.85203858528791 -29.144800070709046 2.5
    vertex 100.66453858528791 -29.144800070709046 2.3125
    vertex 101.85203858528791 -29.144800070709046 2.3125
  endloop
endfacet
facet normal 0.0 -1.0 0.0
  outer loop
    vertex 100.66453858528791 -29.144800070709046 2.3125
    vertex 101.85203858528791 -29.144800070709046 2.5
    vertex 100.66453858528791 -29.144800070709046 2.5
  endloop
endfacet
facet normal 1.0 0.0 0.0
  outer loop
    vertex 101.85203858528791 -14.957300070709046 2.3125
    vertex 101.85203858528791 -29.144800070709046 2.5
    vertex 101.85203858528791 -29.144800070709046 2.3125
  endloop
endfacet
facet normal 1.0 0.0 0.0
  outer loop
    vertex 101.85203858528791 -29.144800070709046 2.5
    vertex 101.85203858528791 -14.957300070709046 2.3125
    vertex 101.85203858528791 -14.957300070709046 2.5
  endloop
endfacet
facet normal 0.0 0.0 1.0
  outer loop
    vertex 100.24526420381092 -14.025039253109561 2.5
    vertex 98.99526420381092 -7.368789253109561 2.5
    vertex 98.99526420381092 -14.025039253109561 2.5
  endloop
endfacet
facet normal 0.0 0.0 1.0
  outer loop
    vertex 98.99526420381092 -7.368789253109561 2.5
    vertex 100.24526420381092 -14.025039253109561 2.5
    vertex 100.24526420381092 -7.368789253109561 2.5
  endloop
endfacet
facet normal 0.0 -1.0 0.0
  outer loop
    vertex 100.24526420381092 -14.025039253109561 2.5
    vertex 98.99526420381092 -14.025039253109561 2.3125
    vertex 100.24526420381092 -14.025039253109561 2.3125
  endloop
endfacet
facet normal 0.0 -1.0 0.0
  outer loop
    vertex 98.99526420381092 -14.025039253109561 2.3125
    vertex 100.24526420381092 -14.025039253109561 2.5
    vertex 98.99526420381092 -14.025039253109561 2.5
  endloop
endfacet
facet normal 1.0 0.0 0.0
  outer loop
    vertex 100.24526420381092 -7.368789253109561 2.3125
    vertex 100.24526420381092 -14.025039253109561 2.5
    vertex 100.24526420381092 -14.025039253109561 2.3125
  endloop
endfacet
facet normal 1.0 0.0 0.0
  outer loop
    vertex 100.24526420381092 -14.025039253109561 2.5
    vertex 100.24526420381092 -7.368789253109561 2.3125
    vertex 100.24526420381092 -7.368789253109561 2.5
  endloop
endfacet
facet normal -1.0 0.0 0.0
  outer loop
    vertex 98.99526420381092 -7.368789253109561 2.5
    vertex 98.99526420381092 -14.025039253109561 2.3125
    vertex 98.99526420381092 -14.025039253109561 2.5
  endloop
endfacet
facet normal -1.0 0.0 0.0
  outer loop
    vertex 98.99526420381092 -14.025039253109561 2.3125
    vertex 98.99526420381092 -7.368789253109561 2.5
    vertex 98.99526420381092 -7.368789253109561 2.3125
  endloop
endfacet
facet normal 0.0 0.0 1.0
  outer loop
    vertex 101.87026420381092 -14.025039253109561 2.5
    vertex 100.66453858528791 -0.7125392531095613 2.5
    vertex 100.66453858528791 -14.025039253109561 2.5
  endloop
endfacet
facet normal 0.0 0.0 1.0
  outer loop
    vertex 100.66453858528791 -0.7125392531095613 2.5
    vertex 101.87026420381092 -14.025039253109561 2.5
    vertex 101.87026420381092 -0.7125392531095613 2.5
  endloop
endfacet
facet normal 0.0 1.0 0.0
  outer loop
    vertex 100.66453858528791 -0.7125392531095613 2.5
    vertex 101.87026420381092 -0.7125392531095613 2.3125
    vertex 100.66453858528791 -0.7125392531095613 2.3125
  endloop
endfacet
facet normal 0.0 1.0 0.0
  outer loop
    vertex 101.87026420381092 -0.7125392531095613 2.3125
    vertex 100.66453858528791 -0.7125392531095613 2.5
    vertex 101.87026420381092 -0.7125392531095613 2.5
  endloop
endfacet
facet normal -1.0 0.0 0.0
  outer loop
    vertex 100.66453858528791 -0.7125392531095613 2.5
    vertex 100.66453858528791 -14.025039253109561 2.3125
    vertex 100.66453858528791 -14.025039253109561 2.5
  endloop
endfacet
facet normal -1.0 0.0 0.0
  outer loop
    vertex 100.66453858528791 -14.025039253109561 2.3125
    vertex 100.66453858528791 -0.7125392531095613 2.5
    vertex 100.66453858528791 -0.7125392531095613 2.3125
  endloop
endfacet
facet normal 0.0 -1.0 0.0
  outer loop
    vertex 101.87026420381092 -14.025039253109561 2.5
    vertex 100.66453858528791 -14.025039253109561 2.3125
    vertex 101.87026420381092 -14.025039253109561 2.3125
  endloop
endfacet
facet normal 0.0 -1.0 0.0
  outer loop
    vertex 100.66453858528791 -14.025039253109561 2.3125
    vertex 101.87026420381092 -14.025039253109561 2.5
    vertex 100.66453858528791 -14.025039253109561 2.5
  endloop
endfacet
facet normal 1.0 0.0 0.0
  outer loop
    vertex 101.87026420381092 -0.7125392531095613 2.3125
    vertex 101.87026420381092 -14.025039253109561 2.5
    vertex 101.87026420381092 -14.025039253109561 2.3125
  endloop
endfacet
facet normal 1.0 0.0 0.0
  outer loop
    vertex 101.87026420381092 -14.025039253109561 2.5
    vertex 101.87026420381092 -0.7125392531095613 2.3125
    vertex 101.87026420381092 -0.7125392531095613 2.5
  endloop
endfacet
facet normal 0.0 0.0 1.0
  outer loop
    vertex 100.24526420381092 -7.368789253109561 2.5
    vertex 98.99526420381092 -0.7125392531095613 2.5
    vertex 98.99526420381092 -7.368789253109561 2.5
  endloop
endfacet
facet normal 0.0 0.0 1.0
  outer loop
    vertex 98.99526420381092 -0.7125392531095613 2.5
    vertex 100.24526420381092 -7.368789253109561 2.5
    vertex 100.24526420381092 -0.7125392531095613 2.5
  endloop
endfacet
facet normal -1.0 0.0 0.0
  outer loop
    vertex 98.99526420381092 -0.7125392531095613 2.5
    vertex 98.99526420381092 -7.368789253109561 2.3125
    vertex 98.99526420381092 -7.368789253109561 2.5
  endloop
endfacet
facet normal -1.0 0.0 0.0
  outer loop
    vertex 98.99526420381092 -7.368789253109561 2.3125
    vertex 98.99526420381092 -0.7125392531095613 2.5
    vertex 98.99526420381092 -0.7125392531095613 2.3125
  endloop
endfacet
facet normal 1.0 0.0 0.0
  outer loop
    vertex 100.24526420381092 -0.7125392531095613 2.3125
    vertex 100.24526420381092 -7.368789253109561 2.5
    vertex 100.24526420381092 -7.368789253109561 2.3125
  endloop
endfacet
facet normal 1.0 0.0 0.0
  outer loop
    vertex 100.24526420381092 -7.368789253109561 2.5
    vertex 100.24526420381092 -0.7125392531095613 2.3125
    vertex 100.24526420381092 -0.7125392531095613 2.5
  endloop
endfacet
facet normal 0.0 1.0 0.0
  outer loop
    vertex 98.99526420381092 -0.7125392531095613 2.5
    vertex 100.24526420381092 -0.7125392531095613 2.3125
    vertex 98.99526420381092 -0.7125392531095613 2.3125
  endloop
endfacet
facet normal 0.0 1.0 0.0
  outer loop
    vertex 100.24526420381092 -0.7125392531095613 2.3125
    vertex 98.99526420381092 -0.7125392531095613 2.5
    vertex 100.24526420381092 -0.7125392531095613 2.5
  endloop
endfacet
endsolid FPV
